<?xml version="1.0" encoding="utf-8" standalone="no"?>
<!DOCTYPE svg PUBLIC "-//W3C//DTD SVG 1.1//EN"
  "http://www.w3.org/Graphics/SVG/1.1/DTD/svg11.dtd">
<!-- Created with matplotlib (http://matplotlib.org/) -->
<svg height="648pt" version="1.1" viewBox="0 0 864 648" width="864pt" xmlns="http://www.w3.org/2000/svg" xmlns:xlink="http://www.w3.org/1999/xlink">
 <defs>
  <style type="text/css">
*{stroke-linecap:butt;stroke-linejoin:round;}
  </style>
 </defs>
 <g id="figure_1">
  <g id="patch_1">
   <path d="M 0 648 
L 864 648 
L 864 0 
L 0 0 
z
" style="fill:#ffffff;"/>
  </g>
  <g id="axes_1">
   <g id="patch_2">
    <path d="M 108 567 
L 777.6 567 
L 777.6 77.76 
L 108 77.76 
z
" style="fill:#ffffff;"/>
   </g>
   <g id="matplotlib.axis_1">
    <g id="xtick_1">
     <g id="line2d_1">
      <path clip-path="url(#pbaa98b48da)" d="M 138.436364 567 
L 138.436364 77.76 
" style="fill:none;stroke:#b0b0b0;stroke-linecap:square;stroke-width:0.8;"/>
     </g>
     <g id="line2d_2">
      <defs>
       <path d="M 0 0 
L 0 3.5 
" id="mff53c6b7a7" style="stroke:#000000;stroke-width:0.8;"/>
      </defs>
      <g>
       <use style="stroke:#000000;stroke-width:0.8;" x="138.436364" xlink:href="#mff53c6b7a7" y="567"/>
      </g>
     </g>
     <g id="text_1">
      <!-- 0 -->
      <defs>
       <path d="M 31.78125 66.40625 
Q 24.171875 66.40625 20.328125 58.90625 
Q 16.5 51.421875 16.5 36.375 
Q 16.5 21.390625 20.328125 13.890625 
Q 24.171875 6.390625 31.78125 6.390625 
Q 39.453125 6.390625 43.28125 13.890625 
Q 47.125 21.390625 47.125 36.375 
Q 47.125 51.421875 43.28125 58.90625 
Q 39.453125 66.40625 31.78125 66.40625 
z
M 31.78125 74.21875 
Q 44.046875 74.21875 50.515625 64.515625 
Q 56.984375 54.828125 56.984375 36.375 
Q 56.984375 17.96875 50.515625 8.265625 
Q 44.046875 -1.421875 31.78125 -1.421875 
Q 19.53125 -1.421875 13.0625 8.265625 
Q 6.59375 17.96875 6.59375 36.375 
Q 6.59375 54.828125 13.0625 64.515625 
Q 19.53125 74.21875 31.78125 74.21875 
z
" id="DejaVuSans-30"/>
      </defs>
      <g transform="translate(135.255114 581.598438)scale(0.1 -0.1)">
       <use xlink:href="#DejaVuSans-30"/>
      </g>
     </g>
    </g>
    <g id="xtick_2">
     <g id="line2d_3">
      <path clip-path="url(#pbaa98b48da)" d="M 266.052144 567 
L 266.052144 77.76 
" style="fill:none;stroke:#b0b0b0;stroke-linecap:square;stroke-width:0.8;"/>
     </g>
     <g id="line2d_4">
      <g>
       <use style="stroke:#000000;stroke-width:0.8;" x="266.052144" xlink:href="#mff53c6b7a7" y="567"/>
      </g>
     </g>
     <g id="text_2">
      <!-- 100 -->
      <defs>
       <path d="M 12.40625 8.296875 
L 28.515625 8.296875 
L 28.515625 63.921875 
L 10.984375 60.40625 
L 10.984375 69.390625 
L 28.421875 72.90625 
L 38.28125 72.90625 
L 38.28125 8.296875 
L 54.390625 8.296875 
L 54.390625 0 
L 12.40625 0 
z
" id="DejaVuSans-31"/>
      </defs>
      <g transform="translate(256.508394 581.598438)scale(0.1 -0.1)">
       <use xlink:href="#DejaVuSans-31"/>
       <use x="63.623047" xlink:href="#DejaVuSans-30"/>
       <use x="127.246094" xlink:href="#DejaVuSans-30"/>
      </g>
     </g>
    </g>
    <g id="xtick_3">
     <g id="line2d_5">
      <path clip-path="url(#pbaa98b48da)" d="M 393.667925 567 
L 393.667925 77.76 
" style="fill:none;stroke:#b0b0b0;stroke-linecap:square;stroke-width:0.8;"/>
     </g>
     <g id="line2d_6">
      <g>
       <use style="stroke:#000000;stroke-width:0.8;" x="393.667925" xlink:href="#mff53c6b7a7" y="567"/>
      </g>
     </g>
     <g id="text_3">
      <!-- 200 -->
      <defs>
       <path d="M 19.1875 8.296875 
L 53.609375 8.296875 
L 53.609375 0 
L 7.328125 0 
L 7.328125 8.296875 
Q 12.9375 14.109375 22.625 23.890625 
Q 32.328125 33.6875 34.8125 36.53125 
Q 39.546875 41.84375 41.421875 45.53125 
Q 43.3125 49.21875 43.3125 52.78125 
Q 43.3125 58.59375 39.234375 62.25 
Q 35.15625 65.921875 28.609375 65.921875 
Q 23.96875 65.921875 18.8125 64.3125 
Q 13.671875 62.703125 7.8125 59.421875 
L 7.8125 69.390625 
Q 13.765625 71.78125 18.9375 73 
Q 24.125 74.21875 28.421875 74.21875 
Q 39.75 74.21875 46.484375 68.546875 
Q 53.21875 62.890625 53.21875 53.421875 
Q 53.21875 48.921875 51.53125 44.890625 
Q 49.859375 40.875 45.40625 35.40625 
Q 44.1875 33.984375 37.640625 27.21875 
Q 31.109375 20.453125 19.1875 8.296875 
z
" id="DejaVuSans-32"/>
      </defs>
      <g transform="translate(384.124175 581.598438)scale(0.1 -0.1)">
       <use xlink:href="#DejaVuSans-32"/>
       <use x="63.623047" xlink:href="#DejaVuSans-30"/>
       <use x="127.246094" xlink:href="#DejaVuSans-30"/>
      </g>
     </g>
    </g>
    <g id="xtick_4">
     <g id="line2d_7">
      <path clip-path="url(#pbaa98b48da)" d="M 521.283705 567 
L 521.283705 77.76 
" style="fill:none;stroke:#b0b0b0;stroke-linecap:square;stroke-width:0.8;"/>
     </g>
     <g id="line2d_8">
      <g>
       <use style="stroke:#000000;stroke-width:0.8;" x="521.283705" xlink:href="#mff53c6b7a7" y="567"/>
      </g>
     </g>
     <g id="text_4">
      <!-- 300 -->
      <defs>
       <path d="M 40.578125 39.3125 
Q 47.65625 37.796875 51.625 33 
Q 55.609375 28.21875 55.609375 21.1875 
Q 55.609375 10.40625 48.1875 4.484375 
Q 40.765625 -1.421875 27.09375 -1.421875 
Q 22.515625 -1.421875 17.65625 -0.515625 
Q 12.796875 0.390625 7.625 2.203125 
L 7.625 11.71875 
Q 11.71875 9.328125 16.59375 8.109375 
Q 21.484375 6.890625 26.8125 6.890625 
Q 36.078125 6.890625 40.9375 10.546875 
Q 45.796875 14.203125 45.796875 21.1875 
Q 45.796875 27.640625 41.28125 31.265625 
Q 36.765625 34.90625 28.71875 34.90625 
L 20.21875 34.90625 
L 20.21875 43.015625 
L 29.109375 43.015625 
Q 36.375 43.015625 40.234375 45.921875 
Q 44.09375 48.828125 44.09375 54.296875 
Q 44.09375 59.90625 40.109375 62.90625 
Q 36.140625 65.921875 28.71875 65.921875 
Q 24.65625 65.921875 20.015625 65.03125 
Q 15.375 64.15625 9.8125 62.3125 
L 9.8125 71.09375 
Q 15.4375 72.65625 20.34375 73.4375 
Q 25.25 74.21875 29.59375 74.21875 
Q 40.828125 74.21875 47.359375 69.109375 
Q 53.90625 64.015625 53.90625 55.328125 
Q 53.90625 49.265625 50.4375 45.09375 
Q 46.96875 40.921875 40.578125 39.3125 
z
" id="DejaVuSans-33"/>
      </defs>
      <g transform="translate(511.739955 581.598438)scale(0.1 -0.1)">
       <use xlink:href="#DejaVuSans-33"/>
       <use x="63.623047" xlink:href="#DejaVuSans-30"/>
       <use x="127.246094" xlink:href="#DejaVuSans-30"/>
      </g>
     </g>
    </g>
    <g id="xtick_5">
     <g id="line2d_9">
      <path clip-path="url(#pbaa98b48da)" d="M 648.899485 567 
L 648.899485 77.76 
" style="fill:none;stroke:#b0b0b0;stroke-linecap:square;stroke-width:0.8;"/>
     </g>
     <g id="line2d_10">
      <g>
       <use style="stroke:#000000;stroke-width:0.8;" x="648.899485" xlink:href="#mff53c6b7a7" y="567"/>
      </g>
     </g>
     <g id="text_5">
      <!-- 400 -->
      <defs>
       <path d="M 37.796875 64.3125 
L 12.890625 25.390625 
L 37.796875 25.390625 
z
M 35.203125 72.90625 
L 47.609375 72.90625 
L 47.609375 25.390625 
L 58.015625 25.390625 
L 58.015625 17.1875 
L 47.609375 17.1875 
L 47.609375 0 
L 37.796875 0 
L 37.796875 17.1875 
L 4.890625 17.1875 
L 4.890625 26.703125 
z
" id="DejaVuSans-34"/>
      </defs>
      <g transform="translate(639.355735 581.598438)scale(0.1 -0.1)">
       <use xlink:href="#DejaVuSans-34"/>
       <use x="63.623047" xlink:href="#DejaVuSans-30"/>
       <use x="127.246094" xlink:href="#DejaVuSans-30"/>
      </g>
     </g>
    </g>
    <g id="xtick_6">
     <g id="line2d_11">
      <path clip-path="url(#pbaa98b48da)" d="M 776.515266 567 
L 776.515266 77.76 
" style="fill:none;stroke:#b0b0b0;stroke-linecap:square;stroke-width:0.8;"/>
     </g>
     <g id="line2d_12">
      <g>
       <use style="stroke:#000000;stroke-width:0.8;" x="776.515266" xlink:href="#mff53c6b7a7" y="567"/>
      </g>
     </g>
     <g id="text_6">
      <!-- 500 -->
      <defs>
       <path d="M 10.796875 72.90625 
L 49.515625 72.90625 
L 49.515625 64.59375 
L 19.828125 64.59375 
L 19.828125 46.734375 
Q 21.96875 47.46875 24.109375 47.828125 
Q 26.265625 48.1875 28.421875 48.1875 
Q 40.625 48.1875 47.75 41.5 
Q 54.890625 34.8125 54.890625 23.390625 
Q 54.890625 11.625 47.5625 5.09375 
Q 40.234375 -1.421875 26.90625 -1.421875 
Q 22.3125 -1.421875 17.546875 -0.640625 
Q 12.796875 0.140625 7.71875 1.703125 
L 7.71875 11.625 
Q 12.109375 9.234375 16.796875 8.0625 
Q 21.484375 6.890625 26.703125 6.890625 
Q 35.15625 6.890625 40.078125 11.328125 
Q 45.015625 15.765625 45.015625 23.390625 
Q 45.015625 31 40.078125 35.4375 
Q 35.15625 39.890625 26.703125 39.890625 
Q 22.75 39.890625 18.8125 39.015625 
Q 14.890625 38.140625 10.796875 36.28125 
z
" id="DejaVuSans-35"/>
      </defs>
      <g transform="translate(766.971516 581.598438)scale(0.1 -0.1)">
       <use xlink:href="#DejaVuSans-35"/>
       <use x="63.623047" xlink:href="#DejaVuSans-30"/>
       <use x="127.246094" xlink:href="#DejaVuSans-30"/>
      </g>
     </g>
    </g>
    <g id="text_7">
     <!-- Episode # -->
     <defs>
      <path d="M 9.8125 72.90625 
L 55.90625 72.90625 
L 55.90625 64.59375 
L 19.671875 64.59375 
L 19.671875 43.015625 
L 54.390625 43.015625 
L 54.390625 34.71875 
L 19.671875 34.71875 
L 19.671875 8.296875 
L 56.78125 8.296875 
L 56.78125 0 
L 9.8125 0 
z
" id="DejaVuSans-45"/>
      <path d="M 18.109375 8.203125 
L 18.109375 -20.796875 
L 9.078125 -20.796875 
L 9.078125 54.6875 
L 18.109375 54.6875 
L 18.109375 46.390625 
Q 20.953125 51.265625 25.265625 53.625 
Q 29.59375 56 35.59375 56 
Q 45.5625 56 51.78125 48.09375 
Q 58.015625 40.1875 58.015625 27.296875 
Q 58.015625 14.40625 51.78125 6.484375 
Q 45.5625 -1.421875 35.59375 -1.421875 
Q 29.59375 -1.421875 25.265625 0.953125 
Q 20.953125 3.328125 18.109375 8.203125 
z
M 48.6875 27.296875 
Q 48.6875 37.203125 44.609375 42.84375 
Q 40.53125 48.484375 33.40625 48.484375 
Q 26.265625 48.484375 22.1875 42.84375 
Q 18.109375 37.203125 18.109375 27.296875 
Q 18.109375 17.390625 22.1875 11.75 
Q 26.265625 6.109375 33.40625 6.109375 
Q 40.53125 6.109375 44.609375 11.75 
Q 48.6875 17.390625 48.6875 27.296875 
z
" id="DejaVuSans-70"/>
      <path d="M 9.421875 54.6875 
L 18.40625 54.6875 
L 18.40625 0 
L 9.421875 0 
z
M 9.421875 75.984375 
L 18.40625 75.984375 
L 18.40625 64.59375 
L 9.421875 64.59375 
z
" id="DejaVuSans-69"/>
      <path d="M 44.28125 53.078125 
L 44.28125 44.578125 
Q 40.484375 46.53125 36.375 47.5 
Q 32.28125 48.484375 27.875 48.484375 
Q 21.1875 48.484375 17.84375 46.4375 
Q 14.5 44.390625 14.5 40.28125 
Q 14.5 37.15625 16.890625 35.375 
Q 19.28125 33.59375 26.515625 31.984375 
L 29.59375 31.296875 
Q 39.15625 29.25 43.1875 25.515625 
Q 47.21875 21.78125 47.21875 15.09375 
Q 47.21875 7.46875 41.1875 3.015625 
Q 35.15625 -1.421875 24.609375 -1.421875 
Q 20.21875 -1.421875 15.453125 -0.5625 
Q 10.6875 0.296875 5.421875 2 
L 5.421875 11.28125 
Q 10.40625 8.6875 15.234375 7.390625 
Q 20.0625 6.109375 24.8125 6.109375 
Q 31.15625 6.109375 34.5625 8.28125 
Q 37.984375 10.453125 37.984375 14.40625 
Q 37.984375 18.0625 35.515625 20.015625 
Q 33.0625 21.96875 24.703125 23.78125 
L 21.578125 24.515625 
Q 13.234375 26.265625 9.515625 29.90625 
Q 5.8125 33.546875 5.8125 39.890625 
Q 5.8125 47.609375 11.28125 51.796875 
Q 16.75 56 26.8125 56 
Q 31.78125 56 36.171875 55.265625 
Q 40.578125 54.546875 44.28125 53.078125 
z
" id="DejaVuSans-73"/>
      <path d="M 30.609375 48.390625 
Q 23.390625 48.390625 19.1875 42.75 
Q 14.984375 37.109375 14.984375 27.296875 
Q 14.984375 17.484375 19.15625 11.84375 
Q 23.34375 6.203125 30.609375 6.203125 
Q 37.796875 6.203125 41.984375 11.859375 
Q 46.1875 17.53125 46.1875 27.296875 
Q 46.1875 37.015625 41.984375 42.703125 
Q 37.796875 48.390625 30.609375 48.390625 
z
M 30.609375 56 
Q 42.328125 56 49.015625 48.375 
Q 55.71875 40.765625 55.71875 27.296875 
Q 55.71875 13.875 49.015625 6.21875 
Q 42.328125 -1.421875 30.609375 -1.421875 
Q 18.84375 -1.421875 12.171875 6.21875 
Q 5.515625 13.875 5.515625 27.296875 
Q 5.515625 40.765625 12.171875 48.375 
Q 18.84375 56 30.609375 56 
z
" id="DejaVuSans-6f"/>
      <path d="M 45.40625 46.390625 
L 45.40625 75.984375 
L 54.390625 75.984375 
L 54.390625 0 
L 45.40625 0 
L 45.40625 8.203125 
Q 42.578125 3.328125 38.25 0.953125 
Q 33.9375 -1.421875 27.875 -1.421875 
Q 17.96875 -1.421875 11.734375 6.484375 
Q 5.515625 14.40625 5.515625 27.296875 
Q 5.515625 40.1875 11.734375 48.09375 
Q 17.96875 56 27.875 56 
Q 33.9375 56 38.25 53.625 
Q 42.578125 51.265625 45.40625 46.390625 
z
M 14.796875 27.296875 
Q 14.796875 17.390625 18.875 11.75 
Q 22.953125 6.109375 30.078125 6.109375 
Q 37.203125 6.109375 41.296875 11.75 
Q 45.40625 17.390625 45.40625 27.296875 
Q 45.40625 37.203125 41.296875 42.84375 
Q 37.203125 48.484375 30.078125 48.484375 
Q 22.953125 48.484375 18.875 42.84375 
Q 14.796875 37.203125 14.796875 27.296875 
z
" id="DejaVuSans-64"/>
      <path d="M 56.203125 29.59375 
L 56.203125 25.203125 
L 14.890625 25.203125 
Q 15.484375 15.921875 20.484375 11.0625 
Q 25.484375 6.203125 34.421875 6.203125 
Q 39.59375 6.203125 44.453125 7.46875 
Q 49.3125 8.734375 54.109375 11.28125 
L 54.109375 2.78125 
Q 49.265625 0.734375 44.1875 -0.34375 
Q 39.109375 -1.421875 33.890625 -1.421875 
Q 20.796875 -1.421875 13.15625 6.1875 
Q 5.515625 13.8125 5.515625 26.8125 
Q 5.515625 40.234375 12.765625 48.109375 
Q 20.015625 56 32.328125 56 
Q 43.359375 56 49.78125 48.890625 
Q 56.203125 41.796875 56.203125 29.59375 
z
M 47.21875 32.234375 
Q 47.125 39.59375 43.09375 43.984375 
Q 39.0625 48.390625 32.421875 48.390625 
Q 24.90625 48.390625 20.390625 44.140625 
Q 15.875 39.890625 15.1875 32.171875 
z
" id="DejaVuSans-65"/>
      <path id="DejaVuSans-20"/>
      <path d="M 51.125 44 
L 36.921875 44 
L 32.8125 27.6875 
L 47.125 27.6875 
z
M 43.796875 71.78125 
L 38.71875 51.515625 
L 52.984375 51.515625 
L 58.109375 71.78125 
L 65.921875 71.78125 
L 60.890625 51.515625 
L 76.125 51.515625 
L 76.125 44 
L 58.984375 44 
L 54.984375 27.6875 
L 70.515625 27.6875 
L 70.515625 20.21875 
L 53.078125 20.21875 
L 48 0 
L 40.1875 0 
L 45.21875 20.21875 
L 30.90625 20.21875 
L 25.875 0 
L 18.015625 0 
L 23.09375 20.21875 
L 7.71875 20.21875 
L 7.71875 27.6875 
L 24.90625 27.6875 
L 29 44 
L 13.28125 44 
L 13.28125 51.515625 
L 30.90625 51.515625 
L 35.890625 71.78125 
z
" id="DejaVuSans-23"/>
     </defs>
     <g transform="translate(417.383594 595.276562)scale(0.1 -0.1)">
      <use xlink:href="#DejaVuSans-45"/>
      <use x="63.183594" xlink:href="#DejaVuSans-70"/>
      <use x="126.660156" xlink:href="#DejaVuSans-69"/>
      <use x="154.443359" xlink:href="#DejaVuSans-73"/>
      <use x="206.542969" xlink:href="#DejaVuSans-6f"/>
      <use x="267.724609" xlink:href="#DejaVuSans-64"/>
      <use x="331.201172" xlink:href="#DejaVuSans-65"/>
      <use x="392.724609" xlink:href="#DejaVuSans-20"/>
      <use x="424.511719" xlink:href="#DejaVuSans-23"/>
     </g>
    </g>
   </g>
   <g id="matplotlib.axis_2">
    <g id="ytick_1">
     <g id="line2d_13">
      <path clip-path="url(#pbaa98b48da)" d="M 108 507.698182 
L 777.6 507.698182 
" style="fill:none;stroke:#b0b0b0;stroke-linecap:square;stroke-width:0.8;"/>
     </g>
     <g id="line2d_14">
      <defs>
       <path d="M 0 0 
L -3.5 0 
" id="m3c895e9fd6" style="stroke:#000000;stroke-width:0.8;"/>
      </defs>
      <g>
       <use style="stroke:#000000;stroke-width:0.8;" x="108" xlink:href="#m3c895e9fd6" y="507.698182"/>
      </g>
     </g>
     <g id="text_8">
      <!-- 0 -->
      <g transform="translate(94.6375 511.497401)scale(0.1 -0.1)">
       <use xlink:href="#DejaVuSans-30"/>
      </g>
     </g>
    </g>
    <g id="ytick_2">
     <g id="line2d_15">
      <path clip-path="url(#pbaa98b48da)" d="M 108 415.039091 
L 777.6 415.039091 
" style="fill:none;stroke:#b0b0b0;stroke-linecap:square;stroke-width:0.8;"/>
     </g>
     <g id="line2d_16">
      <g>
       <use style="stroke:#000000;stroke-width:0.8;" x="108" xlink:href="#m3c895e9fd6" y="415.039091"/>
      </g>
     </g>
     <g id="text_9">
      <!-- 5 -->
      <g transform="translate(94.6375 418.83831)scale(0.1 -0.1)">
       <use xlink:href="#DejaVuSans-35"/>
      </g>
     </g>
    </g>
    <g id="ytick_3">
     <g id="line2d_17">
      <path clip-path="url(#pbaa98b48da)" d="M 108 322.38 
L 777.6 322.38 
" style="fill:none;stroke:#b0b0b0;stroke-linecap:square;stroke-width:0.8;"/>
     </g>
     <g id="line2d_18">
      <g>
       <use style="stroke:#000000;stroke-width:0.8;" x="108" xlink:href="#m3c895e9fd6" y="322.38"/>
      </g>
     </g>
     <g id="text_10">
      <!-- 10 -->
      <g transform="translate(88.275 326.179219)scale(0.1 -0.1)">
       <use xlink:href="#DejaVuSans-31"/>
       <use x="63.623047" xlink:href="#DejaVuSans-30"/>
      </g>
     </g>
    </g>
    <g id="ytick_4">
     <g id="line2d_19">
      <path clip-path="url(#pbaa98b48da)" d="M 108 229.720909 
L 777.6 229.720909 
" style="fill:none;stroke:#b0b0b0;stroke-linecap:square;stroke-width:0.8;"/>
     </g>
     <g id="line2d_20">
      <g>
       <use style="stroke:#000000;stroke-width:0.8;" x="108" xlink:href="#m3c895e9fd6" y="229.720909"/>
      </g>
     </g>
     <g id="text_11">
      <!-- 15 -->
      <g transform="translate(88.275 233.520128)scale(0.1 -0.1)">
       <use xlink:href="#DejaVuSans-31"/>
       <use x="63.623047" xlink:href="#DejaVuSans-35"/>
      </g>
     </g>
    </g>
    <g id="ytick_5">
     <g id="line2d_21">
      <path clip-path="url(#pbaa98b48da)" d="M 108 137.061818 
L 777.6 137.061818 
" style="fill:none;stroke:#b0b0b0;stroke-linecap:square;stroke-width:0.8;"/>
     </g>
     <g id="line2d_22">
      <g>
       <use style="stroke:#000000;stroke-width:0.8;" x="108" xlink:href="#m3c895e9fd6" y="137.061818"/>
      </g>
     </g>
     <g id="text_12">
      <!-- 20 -->
      <g transform="translate(88.275 140.861037)scale(0.1 -0.1)">
       <use xlink:href="#DejaVuSans-32"/>
       <use x="63.623047" xlink:href="#DejaVuSans-30"/>
      </g>
     </g>
    </g>
    <g id="text_13">
     <!-- Score -->
     <defs>
      <path d="M 53.515625 70.515625 
L 53.515625 60.890625 
Q 47.90625 63.578125 42.921875 64.890625 
Q 37.9375 66.21875 33.296875 66.21875 
Q 25.25 66.21875 20.875 63.09375 
Q 16.5 59.96875 16.5 54.203125 
Q 16.5 49.359375 19.40625 46.890625 
Q 22.3125 44.4375 30.421875 42.921875 
L 36.375 41.703125 
Q 47.40625 39.59375 52.65625 34.296875 
Q 57.90625 29 57.90625 20.125 
Q 57.90625 9.515625 50.796875 4.046875 
Q 43.703125 -1.421875 29.984375 -1.421875 
Q 24.8125 -1.421875 18.96875 -0.25 
Q 13.140625 0.921875 6.890625 3.21875 
L 6.890625 13.375 
Q 12.890625 10.015625 18.65625 8.296875 
Q 24.421875 6.59375 29.984375 6.59375 
Q 38.421875 6.59375 43.015625 9.90625 
Q 47.609375 13.234375 47.609375 19.390625 
Q 47.609375 24.75 44.3125 27.78125 
Q 41.015625 30.8125 33.5 32.328125 
L 27.484375 33.5 
Q 16.453125 35.6875 11.515625 40.375 
Q 6.59375 45.0625 6.59375 53.421875 
Q 6.59375 63.09375 13.40625 68.65625 
Q 20.21875 74.21875 32.171875 74.21875 
Q 37.3125 74.21875 42.625 73.28125 
Q 47.953125 72.359375 53.515625 70.515625 
z
" id="DejaVuSans-53"/>
      <path d="M 48.78125 52.59375 
L 48.78125 44.1875 
Q 44.96875 46.296875 41.140625 47.34375 
Q 37.3125 48.390625 33.40625 48.390625 
Q 24.65625 48.390625 19.8125 42.84375 
Q 14.984375 37.3125 14.984375 27.296875 
Q 14.984375 17.28125 19.8125 11.734375 
Q 24.65625 6.203125 33.40625 6.203125 
Q 37.3125 6.203125 41.140625 7.25 
Q 44.96875 8.296875 48.78125 10.40625 
L 48.78125 2.09375 
Q 45.015625 0.34375 40.984375 -0.53125 
Q 36.96875 -1.421875 32.421875 -1.421875 
Q 20.0625 -1.421875 12.78125 6.34375 
Q 5.515625 14.109375 5.515625 27.296875 
Q 5.515625 40.671875 12.859375 48.328125 
Q 20.21875 56 33.015625 56 
Q 37.15625 56 41.109375 55.140625 
Q 45.0625 54.296875 48.78125 52.59375 
z
" id="DejaVuSans-63"/>
      <path d="M 41.109375 46.296875 
Q 39.59375 47.171875 37.8125 47.578125 
Q 36.03125 48 33.890625 48 
Q 26.265625 48 22.1875 43.046875 
Q 18.109375 38.09375 18.109375 28.8125 
L 18.109375 0 
L 9.078125 0 
L 9.078125 54.6875 
L 18.109375 54.6875 
L 18.109375 46.1875 
Q 20.953125 51.171875 25.484375 53.578125 
Q 30.03125 56 36.53125 56 
Q 37.453125 56 38.578125 55.875 
Q 39.703125 55.765625 41.0625 55.515625 
z
" id="DejaVuSans-72"/>
     </defs>
     <g transform="translate(82.195312 336.493281)rotate(-90)scale(0.1 -0.1)">
      <use xlink:href="#DejaVuSans-53"/>
      <use x="63.476562" xlink:href="#DejaVuSans-63"/>
      <use x="118.457031" xlink:href="#DejaVuSans-6f"/>
      <use x="179.638672" xlink:href="#DejaVuSans-72"/>
      <use x="220.720703" xlink:href="#DejaVuSans-65"/>
     </g>
    </g>
   </g>
   <g id="line2d_23">
    <path clip-path="url(#pbaa98b48da)" d="M 138.436364 507.698182 
L 139.712521 489.166364 
L 140.988679 489.166364 
L 142.264837 526.23 
L 143.540995 526.23 
L 144.817153 489.166364 
L 147.369468 526.23 
L 148.645626 507.698182 
L 149.921784 452.102727 
L 151.197942 507.698182 
L 152.474099 507.698182 
L 153.750257 489.166364 
L 155.026415 507.698182 
L 156.302573 507.698182 
L 157.578731 452.102727 
L 158.854889 489.166364 
L 160.131046 507.698182 
L 161.407204 489.166364 
L 162.683362 507.698182 
L 163.95952 489.166364 
L 166.511835 526.23 
L 167.787993 507.698182 
L 169.064151 507.698182 
L 170.340309 544.761818 
L 171.616467 544.761818 
L 172.892624 489.166364 
L 174.168782 526.23 
L 175.44494 526.23 
L 176.721098 489.166364 
L 177.997256 544.761818 
L 179.273413 507.698182 
L 180.549571 507.698182 
L 181.825729 526.23 
L 183.101887 489.166364 
L 184.378045 544.761818 
L 185.654202 470.634545 
L 186.93036 507.698182 
L 188.206518 489.166364 
L 189.482676 526.23 
L 192.034991 489.166364 
L 193.311149 526.23 
L 194.587307 489.166364 
L 195.863465 526.23 
L 199.691938 470.634545 
L 200.968096 470.634545 
L 202.244254 452.102727 
L 203.520412 507.698182 
L 204.796569 489.166364 
L 206.072727 415.039091 
L 207.348885 470.634545 
L 208.625043 489.166364 
L 209.901201 452.102727 
L 211.177358 526.23 
L 212.453516 489.166364 
L 213.729674 470.634545 
L 215.005832 526.23 
L 216.28199 470.634545 
L 217.558148 507.698182 
L 218.834305 452.102727 
L 220.110463 507.698182 
L 221.386621 507.698182 
L 222.662779 526.23 
L 223.938937 470.634545 
L 226.491252 507.698182 
L 227.76741 470.634545 
L 229.043568 507.698182 
L 230.319726 526.23 
L 231.595883 433.570909 
L 232.872041 507.698182 
L 234.148199 470.634545 
L 235.424357 507.698182 
L 236.700515 415.039091 
L 237.976672 507.698182 
L 239.25283 489.166364 
L 240.528988 507.698182 
L 241.805146 470.634545 
L 243.081304 470.634545 
L 244.357461 489.166364 
L 245.633619 489.166364 
L 246.909777 470.634545 
L 248.185935 470.634545 
L 249.462093 452.102727 
L 250.73825 489.166364 
L 252.014408 433.570909 
L 253.290566 470.634545 
L 254.566724 470.634545 
L 255.842882 415.039091 
L 257.119039 507.698182 
L 258.395197 470.634545 
L 259.671355 470.634545 
L 260.947513 452.102727 
L 262.223671 489.166364 
L 264.775986 489.166364 
L 266.052144 452.102727 
L 267.328302 452.102727 
L 268.60446 507.698182 
L 269.880617 452.102727 
L 271.156775 433.570909 
L 272.432933 452.102727 
L 273.709091 489.166364 
L 274.985249 507.698182 
L 276.261407 507.698182 
L 277.537564 489.166364 
L 278.813722 489.166364 
L 280.08988 415.039091 
L 281.366038 433.570909 
L 282.642196 415.039091 
L 283.918353 470.634545 
L 285.194511 489.166364 
L 286.470669 415.039091 
L 287.746827 452.102727 
L 289.022985 470.634545 
L 290.299142 507.698182 
L 291.5753 452.102727 
L 292.851458 526.23 
L 294.127616 470.634545 
L 295.403774 452.102727 
L 296.679931 396.507273 
L 297.956089 433.570909 
L 299.232247 433.570909 
L 300.508405 489.166364 
L 301.784563 489.166364 
L 303.06072 433.570909 
L 304.336878 396.507273 
L 305.613036 340.911818 
L 306.889194 415.039091 
L 308.165352 507.698182 
L 309.441509 377.975455 
L 310.717667 452.102727 
L 311.993825 415.039091 
L 313.269983 433.570909 
L 314.546141 507.698182 
L 315.822298 470.634545 
L 317.098456 415.039091 
L 318.374614 396.507273 
L 319.650772 452.102727 
L 320.92693 340.911818 
L 322.203087 433.570909 
L 323.479245 470.634545 
L 324.755403 489.166364 
L 326.031561 452.102727 
L 327.307719 396.507273 
L 328.583877 470.634545 
L 329.860034 377.975455 
L 331.136192 396.507273 
L 332.41235 470.634545 
L 333.688508 452.102727 
L 334.964666 396.507273 
L 336.240823 470.634545 
L 337.516981 415.039091 
L 340.069297 415.039091 
L 341.345455 433.570909 
L 342.621612 340.911818 
L 343.89777 396.507273 
L 345.173928 377.975455 
L 346.450086 322.38 
L 347.726244 433.570909 
L 349.002401 470.634545 
L 350.278559 415.039091 
L 351.554717 452.102727 
L 352.830875 377.975455 
L 355.38319 489.166364 
L 356.659348 470.634545 
L 357.935506 415.039091 
L 359.211664 470.634545 
L 360.487822 415.039091 
L 361.763979 452.102727 
L 363.040137 340.911818 
L 364.316295 415.039091 
L 365.592453 415.039091 
L 366.868611 526.23 
L 368.144768 433.570909 
L 369.420926 359.443636 
L 370.697084 415.039091 
L 373.2494 415.039091 
L 374.525557 396.507273 
L 375.801715 415.039091 
L 378.354031 377.975455 
L 379.630189 340.911818 
L 380.906346 377.975455 
L 382.182504 452.102727 
L 383.458662 507.698182 
L 384.73482 340.911818 
L 386.010978 433.570909 
L 387.287136 340.911818 
L 388.563293 452.102727 
L 389.839451 470.634545 
L 391.115609 396.507273 
L 392.391767 396.507273 
L 393.667925 526.23 
L 394.944082 415.039091 
L 397.496398 415.039091 
L 398.772556 340.911818 
L 400.048714 433.570909 
L 401.324871 396.507273 
L 402.601029 340.911818 
L 403.877187 415.039091 
L 405.153345 377.975455 
L 406.429503 415.039091 
L 407.70566 433.570909 
L 408.981818 470.634545 
L 410.257976 452.102727 
L 411.534134 322.38 
L 412.810292 266.784545 
L 414.086449 322.38 
L 415.362607 266.784545 
L 416.638765 340.911818 
L 417.914923 433.570909 
L 419.191081 489.166364 
L 420.467238 359.443636 
L 421.743396 396.507273 
L 423.019554 377.975455 
L 424.295712 396.507273 
L 425.57187 340.911818 
L 426.848027 433.570909 
L 428.124185 303.848182 
L 429.400343 415.039091 
L 430.676501 359.443636 
L 431.952659 452.102727 
L 433.228816 322.38 
L 434.504974 340.911818 
L 435.781132 377.975455 
L 437.05729 340.911818 
L 438.333448 340.911818 
L 439.609605 415.039091 
L 440.885763 322.38 
L 442.161921 377.975455 
L 443.438079 415.039091 
L 444.714237 340.911818 
L 445.990395 285.316364 
L 447.266552 396.507273 
L 448.54271 303.848182 
L 449.818868 415.039091 
L 451.095026 396.507273 
L 452.371184 452.102727 
L 453.647341 452.102727 
L 454.923499 340.911818 
L 456.199657 470.634545 
L 457.475815 377.975455 
L 458.751973 377.975455 
L 460.02813 322.38 
L 461.304288 322.38 
L 462.580446 452.102727 
L 463.856604 415.039091 
L 465.132762 266.784545 
L 467.685077 489.166364 
L 468.961235 396.507273 
L 470.237393 433.570909 
L 471.513551 285.316364 
L 472.789708 340.911818 
L 474.065866 248.252727 
L 475.342024 340.911818 
L 476.618182 452.102727 
L 477.89434 340.911818 
L 479.170497 470.634545 
L 480.446655 340.911818 
L 481.722813 322.38 
L 482.998971 285.316364 
L 484.275129 377.975455 
L 485.551286 340.911818 
L 486.827444 211.189091 
L 488.103602 303.848182 
L 489.37976 303.848182 
L 490.655918 470.634545 
L 491.932075 415.039091 
L 493.208233 340.911818 
L 494.484391 285.316364 
L 495.760549 377.975455 
L 497.036707 211.189091 
L 498.312864 377.975455 
L 499.589022 303.848182 
L 504.693654 303.848182 
L 505.969811 340.911818 
L 507.245969 266.784545 
L 508.522127 359.443636 
L 509.798285 415.039091 
L 511.074443 396.507273 
L 512.3506 452.102727 
L 513.626758 396.507273 
L 514.902916 322.38 
L 516.179074 359.443636 
L 517.455232 303.848182 
L 518.731389 377.975455 
L 520.007547 285.316364 
L 521.283705 359.443636 
L 522.559863 248.252727 
L 523.836021 433.570909 
L 525.112178 266.784545 
L 526.388336 377.975455 
L 527.664494 303.848182 
L 528.940652 266.784545 
L 531.492967 303.848182 
L 532.769125 303.848182 
L 534.045283 433.570909 
L 535.321441 340.911818 
L 536.597599 229.720909 
L 537.873756 303.848182 
L 539.149914 192.657273 
L 540.426072 266.784545 
L 541.70223 248.252727 
L 542.978388 285.316364 
L 544.254545 211.189091 
L 545.530703 229.720909 
L 546.806861 377.975455 
L 548.083019 248.252727 
L 549.359177 322.38 
L 550.635334 322.38 
L 551.911492 415.039091 
L 553.18765 359.443636 
L 554.463808 266.784545 
L 555.739966 377.975455 
L 557.016123 155.593636 
L 558.292281 396.507273 
L 559.568439 192.657273 
L 560.844597 377.975455 
L 562.120755 377.975455 
L 563.396913 303.848182 
L 564.67307 322.38 
L 565.949228 322.38 
L 567.225386 377.975455 
L 568.501544 396.507273 
L 569.777702 433.570909 
L 571.053859 415.039091 
L 572.330017 303.848182 
L 573.606175 266.784545 
L 576.158491 266.784545 
L 577.434648 322.38 
L 578.710806 229.720909 
L 579.986964 285.316364 
L 581.263122 285.316364 
L 582.53928 248.252727 
L 583.815437 377.975455 
L 585.091595 303.848182 
L 586.367753 322.38 
L 587.643911 303.848182 
L 588.920069 211.189091 
L 590.196226 433.570909 
L 591.472384 322.38 
L 592.748542 303.848182 
L 594.0247 452.102727 
L 595.300858 192.657273 
L 596.577015 340.911818 
L 597.853173 359.443636 
L 599.129331 303.848182 
L 600.405489 266.784545 
L 601.681647 340.911818 
L 602.957804 248.252727 
L 604.233962 229.720909 
L 605.51012 285.316364 
L 606.786278 285.316364 
L 608.062436 303.848182 
L 609.338593 174.125455 
L 610.614751 415.039091 
L 611.890909 303.848182 
L 613.167067 266.784545 
L 614.443225 322.38 
L 615.719383 470.634545 
L 616.99554 303.848182 
L 618.271698 285.316364 
L 619.547856 433.570909 
L 620.824014 211.189091 
L 623.376329 248.252727 
L 625.928645 211.189091 
L 627.204803 359.443636 
L 628.480961 229.720909 
L 629.757118 211.189091 
L 631.033276 229.720909 
L 632.309434 303.848182 
L 633.585592 452.102727 
L 634.86175 322.38 
L 636.137907 266.784545 
L 637.414065 118.53 
L 638.690223 192.657273 
L 639.966381 285.316364 
L 641.242539 340.911818 
L 642.518696 340.911818 
L 643.794854 285.316364 
L 645.071012 99.998182 
L 646.34717 211.189091 
L 647.623328 229.720909 
L 648.899485 303.848182 
L 650.175643 211.189091 
L 651.451801 99.998182 
L 652.727959 489.166364 
L 654.004117 248.252727 
L 655.280274 433.570909 
L 656.556432 229.720909 
L 657.83259 248.252727 
L 659.108748 229.720909 
L 660.384906 340.911818 
L 661.661063 322.38 
L 662.937221 285.316364 
L 664.213379 229.720909 
L 665.489537 266.784545 
L 666.765695 285.316364 
L 669.31801 211.189091 
L 670.594168 303.848182 
L 671.870326 229.720909 
L 673.146484 211.189091 
L 674.422642 266.784545 
L 675.698799 303.848182 
L 676.974957 266.784545 
L 678.251115 377.975455 
L 679.527273 285.316364 
L 680.803431 303.848182 
L 682.079588 192.657273 
L 683.355746 322.38 
L 684.631904 377.975455 
L 685.908062 303.848182 
L 687.18422 303.848182 
L 688.460377 211.189091 
L 689.736535 266.784545 
L 691.012693 192.657273 
L 692.288851 340.911818 
L 693.565009 229.720909 
L 694.841166 285.316364 
L 696.117324 174.125455 
L 697.393482 377.975455 
L 698.66964 229.720909 
L 701.221955 229.720909 
L 702.498113 285.316364 
L 703.774271 192.657273 
L 705.050429 452.102727 
L 706.326587 303.848182 
L 707.602744 248.252727 
L 708.878902 248.252727 
L 710.15506 174.125455 
L 711.431218 248.252727 
L 712.707376 340.911818 
L 713.983533 285.316364 
L 715.259691 155.593636 
L 716.535849 229.720909 
L 717.812007 248.252727 
L 719.088165 322.38 
L 720.364322 377.975455 
L 721.64048 248.252727 
L 722.916638 359.443636 
L 724.192796 192.657273 
L 728.021269 248.252727 
L 729.297427 174.125455 
L 730.573585 415.039091 
L 731.849743 229.720909 
L 733.125901 303.848182 
L 734.402058 192.657273 
L 735.678216 285.316364 
L 736.954374 155.593636 
L 738.230532 415.039091 
L 739.50669 285.316364 
L 740.782847 229.720909 
L 744.611321 229.720909 
L 745.887479 285.316364 
L 747.163636 174.125455 
L 747.163636 174.125455 
" style="fill:none;stroke:#1f77b4;stroke-linecap:square;stroke-width:1.5;"/>
   </g>
   <g id="patch_3">
    <path d="M 108 567 
L 108 77.76 
" style="fill:none;stroke:#000000;stroke-linecap:square;stroke-linejoin:miter;stroke-width:0.8;"/>
   </g>
   <g id="patch_4">
    <path d="M 777.6 567 
L 777.6 77.76 
" style="fill:none;stroke:#000000;stroke-linecap:square;stroke-linejoin:miter;stroke-width:0.8;"/>
   </g>
   <g id="patch_5">
    <path d="M 108 567 
L 777.6 567 
" style="fill:none;stroke:#000000;stroke-linecap:square;stroke-linejoin:miter;stroke-width:0.8;"/>
   </g>
   <g id="patch_6">
    <path d="M 108 77.76 
L 777.6 77.76 
" style="fill:none;stroke:#000000;stroke-linecap:square;stroke-linejoin:miter;stroke-width:0.8;"/>
   </g>
  </g>
 </g>
 <defs>
  <clipPath id="pbaa98b48da">
   <rect height="489.24" width="669.6" x="108" y="77.76"/>
  </clipPath>
 </defs>
</svg>
