<?xml version="1.0" encoding="utf-8" standalone="no"?>
<!DOCTYPE svg PUBLIC "-//W3C//DTD SVG 1.1//EN"
  "http://www.w3.org/Graphics/SVG/1.1/DTD/svg11.dtd">
<!-- Created with matplotlib (http://matplotlib.org/) -->
<svg height="648pt" version="1.1" viewBox="0 0 864 648" width="864pt" xmlns="http://www.w3.org/2000/svg" xmlns:xlink="http://www.w3.org/1999/xlink">
 <defs>
  <style type="text/css">
*{stroke-linecap:butt;stroke-linejoin:round;}
  </style>
 </defs>
 <g id="figure_1">
  <g id="patch_1">
   <path d="M 0 648 
L 864 648 
L 864 0 
L 0 0 
z
" style="fill:#ffffff;"/>
  </g>
  <g id="axes_1">
   <g id="patch_2">
    <path d="M 108 567 
L 777.6 567 
L 777.6 77.76 
L 108 77.76 
z
" style="fill:#ffffff;"/>
   </g>
   <g id="matplotlib.axis_1">
    <g id="xtick_1">
     <g id="line2d_1">
      <path clip-path="url(#p0ff561b8dd)" d="M 138.436364 567 
L 138.436364 77.76 
" style="fill:none;stroke:#b0b0b0;stroke-linecap:square;stroke-width:0.8;"/>
     </g>
     <g id="line2d_2">
      <defs>
       <path d="M 0 0 
L 0 3.5 
" id="m42a643244f" style="stroke:#000000;stroke-width:0.8;"/>
      </defs>
      <g>
       <use style="stroke:#000000;stroke-width:0.8;" x="138.436364" xlink:href="#m42a643244f" y="567"/>
      </g>
     </g>
     <g id="text_1">
      <!-- 0 -->
      <defs>
       <path d="M 31.78125 66.40625 
Q 24.171875 66.40625 20.328125 58.90625 
Q 16.5 51.421875 16.5 36.375 
Q 16.5 21.390625 20.328125 13.890625 
Q 24.171875 6.390625 31.78125 6.390625 
Q 39.453125 6.390625 43.28125 13.890625 
Q 47.125 21.390625 47.125 36.375 
Q 47.125 51.421875 43.28125 58.90625 
Q 39.453125 66.40625 31.78125 66.40625 
z
M 31.78125 74.21875 
Q 44.046875 74.21875 50.515625 64.515625 
Q 56.984375 54.828125 56.984375 36.375 
Q 56.984375 17.96875 50.515625 8.265625 
Q 44.046875 -1.421875 31.78125 -1.421875 
Q 19.53125 -1.421875 13.0625 8.265625 
Q 6.59375 17.96875 6.59375 36.375 
Q 6.59375 54.828125 13.0625 64.515625 
Q 19.53125 74.21875 31.78125 74.21875 
z
" id="DejaVuSans-30"/>
      </defs>
      <g transform="translate(135.255114 581.598438)scale(0.1 -0.1)">
       <use xlink:href="#DejaVuSans-30"/>
      </g>
     </g>
    </g>
    <g id="xtick_2">
     <g id="line2d_3">
      <path clip-path="url(#p0ff561b8dd)" d="M 265.519302 567 
L 265.519302 77.76 
" style="fill:none;stroke:#b0b0b0;stroke-linecap:square;stroke-width:0.8;"/>
     </g>
     <g id="line2d_4">
      <g>
       <use style="stroke:#000000;stroke-width:0.8;" x="265.519302" xlink:href="#m42a643244f" y="567"/>
      </g>
     </g>
     <g id="text_2">
      <!-- 100 -->
      <defs>
       <path d="M 12.40625 8.296875 
L 28.515625 8.296875 
L 28.515625 63.921875 
L 10.984375 60.40625 
L 10.984375 69.390625 
L 28.421875 72.90625 
L 38.28125 72.90625 
L 38.28125 8.296875 
L 54.390625 8.296875 
L 54.390625 0 
L 12.40625 0 
z
" id="DejaVuSans-31"/>
      </defs>
      <g transform="translate(255.975552 581.598438)scale(0.1 -0.1)">
       <use xlink:href="#DejaVuSans-31"/>
       <use x="63.623047" xlink:href="#DejaVuSans-30"/>
       <use x="127.246094" xlink:href="#DejaVuSans-30"/>
      </g>
     </g>
    </g>
    <g id="xtick_3">
     <g id="line2d_5">
      <path clip-path="url(#p0ff561b8dd)" d="M 392.60224 567 
L 392.60224 77.76 
" style="fill:none;stroke:#b0b0b0;stroke-linecap:square;stroke-width:0.8;"/>
     </g>
     <g id="line2d_6">
      <g>
       <use style="stroke:#000000;stroke-width:0.8;" x="392.60224" xlink:href="#m42a643244f" y="567"/>
      </g>
     </g>
     <g id="text_3">
      <!-- 200 -->
      <defs>
       <path d="M 19.1875 8.296875 
L 53.609375 8.296875 
L 53.609375 0 
L 7.328125 0 
L 7.328125 8.296875 
Q 12.9375 14.109375 22.625 23.890625 
Q 32.328125 33.6875 34.8125 36.53125 
Q 39.546875 41.84375 41.421875 45.53125 
Q 43.3125 49.21875 43.3125 52.78125 
Q 43.3125 58.59375 39.234375 62.25 
Q 35.15625 65.921875 28.609375 65.921875 
Q 23.96875 65.921875 18.8125 64.3125 
Q 13.671875 62.703125 7.8125 59.421875 
L 7.8125 69.390625 
Q 13.765625 71.78125 18.9375 73 
Q 24.125 74.21875 28.421875 74.21875 
Q 39.75 74.21875 46.484375 68.546875 
Q 53.21875 62.890625 53.21875 53.421875 
Q 53.21875 48.921875 51.53125 44.890625 
Q 49.859375 40.875 45.40625 35.40625 
Q 44.1875 33.984375 37.640625 27.21875 
Q 31.109375 20.453125 19.1875 8.296875 
z
" id="DejaVuSans-32"/>
      </defs>
      <g transform="translate(383.05849 581.598438)scale(0.1 -0.1)">
       <use xlink:href="#DejaVuSans-32"/>
       <use x="63.623047" xlink:href="#DejaVuSans-30"/>
       <use x="127.246094" xlink:href="#DejaVuSans-30"/>
      </g>
     </g>
    </g>
    <g id="xtick_4">
     <g id="line2d_7">
      <path clip-path="url(#p0ff561b8dd)" d="M 519.685177 567 
L 519.685177 77.76 
" style="fill:none;stroke:#b0b0b0;stroke-linecap:square;stroke-width:0.8;"/>
     </g>
     <g id="line2d_8">
      <g>
       <use style="stroke:#000000;stroke-width:0.8;" x="519.685177" xlink:href="#m42a643244f" y="567"/>
      </g>
     </g>
     <g id="text_4">
      <!-- 300 -->
      <defs>
       <path d="M 40.578125 39.3125 
Q 47.65625 37.796875 51.625 33 
Q 55.609375 28.21875 55.609375 21.1875 
Q 55.609375 10.40625 48.1875 4.484375 
Q 40.765625 -1.421875 27.09375 -1.421875 
Q 22.515625 -1.421875 17.65625 -0.515625 
Q 12.796875 0.390625 7.625 2.203125 
L 7.625 11.71875 
Q 11.71875 9.328125 16.59375 8.109375 
Q 21.484375 6.890625 26.8125 6.890625 
Q 36.078125 6.890625 40.9375 10.546875 
Q 45.796875 14.203125 45.796875 21.1875 
Q 45.796875 27.640625 41.28125 31.265625 
Q 36.765625 34.90625 28.71875 34.90625 
L 20.21875 34.90625 
L 20.21875 43.015625 
L 29.109375 43.015625 
Q 36.375 43.015625 40.234375 45.921875 
Q 44.09375 48.828125 44.09375 54.296875 
Q 44.09375 59.90625 40.109375 62.90625 
Q 36.140625 65.921875 28.71875 65.921875 
Q 24.65625 65.921875 20.015625 65.03125 
Q 15.375 64.15625 9.8125 62.3125 
L 9.8125 71.09375 
Q 15.4375 72.65625 20.34375 73.4375 
Q 25.25 74.21875 29.59375 74.21875 
Q 40.828125 74.21875 47.359375 69.109375 
Q 53.90625 64.015625 53.90625 55.328125 
Q 53.90625 49.265625 50.4375 45.09375 
Q 46.96875 40.921875 40.578125 39.3125 
z
" id="DejaVuSans-33"/>
      </defs>
      <g transform="translate(510.141427 581.598438)scale(0.1 -0.1)">
       <use xlink:href="#DejaVuSans-33"/>
       <use x="63.623047" xlink:href="#DejaVuSans-30"/>
       <use x="127.246094" xlink:href="#DejaVuSans-30"/>
      </g>
     </g>
    </g>
    <g id="xtick_5">
     <g id="line2d_9">
      <path clip-path="url(#p0ff561b8dd)" d="M 646.768115 567 
L 646.768115 77.76 
" style="fill:none;stroke:#b0b0b0;stroke-linecap:square;stroke-width:0.8;"/>
     </g>
     <g id="line2d_10">
      <g>
       <use style="stroke:#000000;stroke-width:0.8;" x="646.768115" xlink:href="#m42a643244f" y="567"/>
      </g>
     </g>
     <g id="text_5">
      <!-- 400 -->
      <defs>
       <path d="M 37.796875 64.3125 
L 12.890625 25.390625 
L 37.796875 25.390625 
z
M 35.203125 72.90625 
L 47.609375 72.90625 
L 47.609375 25.390625 
L 58.015625 25.390625 
L 58.015625 17.1875 
L 47.609375 17.1875 
L 47.609375 0 
L 37.796875 0 
L 37.796875 17.1875 
L 4.890625 17.1875 
L 4.890625 26.703125 
z
" id="DejaVuSans-34"/>
      </defs>
      <g transform="translate(637.224365 581.598438)scale(0.1 -0.1)">
       <use xlink:href="#DejaVuSans-34"/>
       <use x="63.623047" xlink:href="#DejaVuSans-30"/>
       <use x="127.246094" xlink:href="#DejaVuSans-30"/>
      </g>
     </g>
    </g>
    <g id="xtick_6">
     <g id="line2d_11">
      <path clip-path="url(#p0ff561b8dd)" d="M 773.851053 567 
L 773.851053 77.76 
" style="fill:none;stroke:#b0b0b0;stroke-linecap:square;stroke-width:0.8;"/>
     </g>
     <g id="line2d_12">
      <g>
       <use style="stroke:#000000;stroke-width:0.8;" x="773.851053" xlink:href="#m42a643244f" y="567"/>
      </g>
     </g>
     <g id="text_6">
      <!-- 500 -->
      <defs>
       <path d="M 10.796875 72.90625 
L 49.515625 72.90625 
L 49.515625 64.59375 
L 19.828125 64.59375 
L 19.828125 46.734375 
Q 21.96875 47.46875 24.109375 47.828125 
Q 26.265625 48.1875 28.421875 48.1875 
Q 40.625 48.1875 47.75 41.5 
Q 54.890625 34.8125 54.890625 23.390625 
Q 54.890625 11.625 47.5625 5.09375 
Q 40.234375 -1.421875 26.90625 -1.421875 
Q 22.3125 -1.421875 17.546875 -0.640625 
Q 12.796875 0.140625 7.71875 1.703125 
L 7.71875 11.625 
Q 12.109375 9.234375 16.796875 8.0625 
Q 21.484375 6.890625 26.703125 6.890625 
Q 35.15625 6.890625 40.078125 11.328125 
Q 45.015625 15.765625 45.015625 23.390625 
Q 45.015625 31 40.078125 35.4375 
Q 35.15625 39.890625 26.703125 39.890625 
Q 22.75 39.890625 18.8125 39.015625 
Q 14.890625 38.140625 10.796875 36.28125 
z
" id="DejaVuSans-35"/>
      </defs>
      <g transform="translate(764.307303 581.598438)scale(0.1 -0.1)">
       <use xlink:href="#DejaVuSans-35"/>
       <use x="63.623047" xlink:href="#DejaVuSans-30"/>
       <use x="127.246094" xlink:href="#DejaVuSans-30"/>
      </g>
     </g>
    </g>
    <g id="text_7">
     <!-- Episode # -->
     <defs>
      <path d="M 9.8125 72.90625 
L 55.90625 72.90625 
L 55.90625 64.59375 
L 19.671875 64.59375 
L 19.671875 43.015625 
L 54.390625 43.015625 
L 54.390625 34.71875 
L 19.671875 34.71875 
L 19.671875 8.296875 
L 56.78125 8.296875 
L 56.78125 0 
L 9.8125 0 
z
" id="DejaVuSans-45"/>
      <path d="M 18.109375 8.203125 
L 18.109375 -20.796875 
L 9.078125 -20.796875 
L 9.078125 54.6875 
L 18.109375 54.6875 
L 18.109375 46.390625 
Q 20.953125 51.265625 25.265625 53.625 
Q 29.59375 56 35.59375 56 
Q 45.5625 56 51.78125 48.09375 
Q 58.015625 40.1875 58.015625 27.296875 
Q 58.015625 14.40625 51.78125 6.484375 
Q 45.5625 -1.421875 35.59375 -1.421875 
Q 29.59375 -1.421875 25.265625 0.953125 
Q 20.953125 3.328125 18.109375 8.203125 
z
M 48.6875 27.296875 
Q 48.6875 37.203125 44.609375 42.84375 
Q 40.53125 48.484375 33.40625 48.484375 
Q 26.265625 48.484375 22.1875 42.84375 
Q 18.109375 37.203125 18.109375 27.296875 
Q 18.109375 17.390625 22.1875 11.75 
Q 26.265625 6.109375 33.40625 6.109375 
Q 40.53125 6.109375 44.609375 11.75 
Q 48.6875 17.390625 48.6875 27.296875 
z
" id="DejaVuSans-70"/>
      <path d="M 9.421875 54.6875 
L 18.40625 54.6875 
L 18.40625 0 
L 9.421875 0 
z
M 9.421875 75.984375 
L 18.40625 75.984375 
L 18.40625 64.59375 
L 9.421875 64.59375 
z
" id="DejaVuSans-69"/>
      <path d="M 44.28125 53.078125 
L 44.28125 44.578125 
Q 40.484375 46.53125 36.375 47.5 
Q 32.28125 48.484375 27.875 48.484375 
Q 21.1875 48.484375 17.84375 46.4375 
Q 14.5 44.390625 14.5 40.28125 
Q 14.5 37.15625 16.890625 35.375 
Q 19.28125 33.59375 26.515625 31.984375 
L 29.59375 31.296875 
Q 39.15625 29.25 43.1875 25.515625 
Q 47.21875 21.78125 47.21875 15.09375 
Q 47.21875 7.46875 41.1875 3.015625 
Q 35.15625 -1.421875 24.609375 -1.421875 
Q 20.21875 -1.421875 15.453125 -0.5625 
Q 10.6875 0.296875 5.421875 2 
L 5.421875 11.28125 
Q 10.40625 8.6875 15.234375 7.390625 
Q 20.0625 6.109375 24.8125 6.109375 
Q 31.15625 6.109375 34.5625 8.28125 
Q 37.984375 10.453125 37.984375 14.40625 
Q 37.984375 18.0625 35.515625 20.015625 
Q 33.0625 21.96875 24.703125 23.78125 
L 21.578125 24.515625 
Q 13.234375 26.265625 9.515625 29.90625 
Q 5.8125 33.546875 5.8125 39.890625 
Q 5.8125 47.609375 11.28125 51.796875 
Q 16.75 56 26.8125 56 
Q 31.78125 56 36.171875 55.265625 
Q 40.578125 54.546875 44.28125 53.078125 
z
" id="DejaVuSans-73"/>
      <path d="M 30.609375 48.390625 
Q 23.390625 48.390625 19.1875 42.75 
Q 14.984375 37.109375 14.984375 27.296875 
Q 14.984375 17.484375 19.15625 11.84375 
Q 23.34375 6.203125 30.609375 6.203125 
Q 37.796875 6.203125 41.984375 11.859375 
Q 46.1875 17.53125 46.1875 27.296875 
Q 46.1875 37.015625 41.984375 42.703125 
Q 37.796875 48.390625 30.609375 48.390625 
z
M 30.609375 56 
Q 42.328125 56 49.015625 48.375 
Q 55.71875 40.765625 55.71875 27.296875 
Q 55.71875 13.875 49.015625 6.21875 
Q 42.328125 -1.421875 30.609375 -1.421875 
Q 18.84375 -1.421875 12.171875 6.21875 
Q 5.515625 13.875 5.515625 27.296875 
Q 5.515625 40.765625 12.171875 48.375 
Q 18.84375 56 30.609375 56 
z
" id="DejaVuSans-6f"/>
      <path d="M 45.40625 46.390625 
L 45.40625 75.984375 
L 54.390625 75.984375 
L 54.390625 0 
L 45.40625 0 
L 45.40625 8.203125 
Q 42.578125 3.328125 38.25 0.953125 
Q 33.9375 -1.421875 27.875 -1.421875 
Q 17.96875 -1.421875 11.734375 6.484375 
Q 5.515625 14.40625 5.515625 27.296875 
Q 5.515625 40.1875 11.734375 48.09375 
Q 17.96875 56 27.875 56 
Q 33.9375 56 38.25 53.625 
Q 42.578125 51.265625 45.40625 46.390625 
z
M 14.796875 27.296875 
Q 14.796875 17.390625 18.875 11.75 
Q 22.953125 6.109375 30.078125 6.109375 
Q 37.203125 6.109375 41.296875 11.75 
Q 45.40625 17.390625 45.40625 27.296875 
Q 45.40625 37.203125 41.296875 42.84375 
Q 37.203125 48.484375 30.078125 48.484375 
Q 22.953125 48.484375 18.875 42.84375 
Q 14.796875 37.203125 14.796875 27.296875 
z
" id="DejaVuSans-64"/>
      <path d="M 56.203125 29.59375 
L 56.203125 25.203125 
L 14.890625 25.203125 
Q 15.484375 15.921875 20.484375 11.0625 
Q 25.484375 6.203125 34.421875 6.203125 
Q 39.59375 6.203125 44.453125 7.46875 
Q 49.3125 8.734375 54.109375 11.28125 
L 54.109375 2.78125 
Q 49.265625 0.734375 44.1875 -0.34375 
Q 39.109375 -1.421875 33.890625 -1.421875 
Q 20.796875 -1.421875 13.15625 6.1875 
Q 5.515625 13.8125 5.515625 26.8125 
Q 5.515625 40.234375 12.765625 48.109375 
Q 20.015625 56 32.328125 56 
Q 43.359375 56 49.78125 48.890625 
Q 56.203125 41.796875 56.203125 29.59375 
z
M 47.21875 32.234375 
Q 47.125 39.59375 43.09375 43.984375 
Q 39.0625 48.390625 32.421875 48.390625 
Q 24.90625 48.390625 20.390625 44.140625 
Q 15.875 39.890625 15.1875 32.171875 
z
" id="DejaVuSans-65"/>
      <path id="DejaVuSans-20"/>
      <path d="M 51.125 44 
L 36.921875 44 
L 32.8125 27.6875 
L 47.125 27.6875 
z
M 43.796875 71.78125 
L 38.71875 51.515625 
L 52.984375 51.515625 
L 58.109375 71.78125 
L 65.921875 71.78125 
L 60.890625 51.515625 
L 76.125 51.515625 
L 76.125 44 
L 58.984375 44 
L 54.984375 27.6875 
L 70.515625 27.6875 
L 70.515625 20.21875 
L 53.078125 20.21875 
L 48 0 
L 40.1875 0 
L 45.21875 20.21875 
L 30.90625 20.21875 
L 25.875 0 
L 18.015625 0 
L 23.09375 20.21875 
L 7.71875 20.21875 
L 7.71875 27.6875 
L 24.90625 27.6875 
L 29 44 
L 13.28125 44 
L 13.28125 51.515625 
L 30.90625 51.515625 
L 35.890625 71.78125 
z
" id="DejaVuSans-23"/>
     </defs>
     <g transform="translate(417.383594 595.276562)scale(0.1 -0.1)">
      <use xlink:href="#DejaVuSans-45"/>
      <use x="63.183594" xlink:href="#DejaVuSans-70"/>
      <use x="126.660156" xlink:href="#DejaVuSans-69"/>
      <use x="154.443359" xlink:href="#DejaVuSans-73"/>
      <use x="206.542969" xlink:href="#DejaVuSans-6f"/>
      <use x="267.724609" xlink:href="#DejaVuSans-64"/>
      <use x="331.201172" xlink:href="#DejaVuSans-65"/>
      <use x="392.724609" xlink:href="#DejaVuSans-20"/>
      <use x="424.511719" xlink:href="#DejaVuSans-23"/>
     </g>
    </g>
   </g>
   <g id="matplotlib.axis_2">
    <g id="ytick_1">
     <g id="line2d_13">
      <path clip-path="url(#p0ff561b8dd)" d="M 108 502.403377 
L 777.6 502.403377 
" style="fill:none;stroke:#b0b0b0;stroke-linecap:square;stroke-width:0.8;"/>
     </g>
     <g id="line2d_14">
      <defs>
       <path d="M 0 0 
L -3.5 0 
" id="m393f5f9a89" style="stroke:#000000;stroke-width:0.8;"/>
      </defs>
      <g>
       <use style="stroke:#000000;stroke-width:0.8;" x="108" xlink:href="#m393f5f9a89" y="502.403377"/>
      </g>
     </g>
     <g id="text_8">
      <!-- 0 -->
      <g transform="translate(94.6375 506.202595)scale(0.1 -0.1)">
       <use xlink:href="#DejaVuSans-30"/>
      </g>
     </g>
    </g>
    <g id="ytick_2">
     <g id="line2d_15">
      <path clip-path="url(#p0ff561b8dd)" d="M 108 396.507273 
L 777.6 396.507273 
" style="fill:none;stroke:#b0b0b0;stroke-linecap:square;stroke-width:0.8;"/>
     </g>
     <g id="line2d_16">
      <g>
       <use style="stroke:#000000;stroke-width:0.8;" x="108" xlink:href="#m393f5f9a89" y="396.507273"/>
      </g>
     </g>
     <g id="text_9">
      <!-- 5 -->
      <g transform="translate(94.6375 400.306491)scale(0.1 -0.1)">
       <use xlink:href="#DejaVuSans-35"/>
      </g>
     </g>
    </g>
    <g id="ytick_3">
     <g id="line2d_17">
      <path clip-path="url(#p0ff561b8dd)" d="M 108 290.611169 
L 777.6 290.611169 
" style="fill:none;stroke:#b0b0b0;stroke-linecap:square;stroke-width:0.8;"/>
     </g>
     <g id="line2d_18">
      <g>
       <use style="stroke:#000000;stroke-width:0.8;" x="108" xlink:href="#m393f5f9a89" y="290.611169"/>
      </g>
     </g>
     <g id="text_10">
      <!-- 10 -->
      <g transform="translate(88.275 294.410388)scale(0.1 -0.1)">
       <use xlink:href="#DejaVuSans-31"/>
       <use x="63.623047" xlink:href="#DejaVuSans-30"/>
      </g>
     </g>
    </g>
    <g id="ytick_4">
     <g id="line2d_19">
      <path clip-path="url(#p0ff561b8dd)" d="M 108 184.715065 
L 777.6 184.715065 
" style="fill:none;stroke:#b0b0b0;stroke-linecap:square;stroke-width:0.8;"/>
     </g>
     <g id="line2d_20">
      <g>
       <use style="stroke:#000000;stroke-width:0.8;" x="108" xlink:href="#m393f5f9a89" y="184.715065"/>
      </g>
     </g>
     <g id="text_11">
      <!-- 15 -->
      <g transform="translate(88.275 188.514284)scale(0.1 -0.1)">
       <use xlink:href="#DejaVuSans-31"/>
       <use x="63.623047" xlink:href="#DejaVuSans-35"/>
      </g>
     </g>
    </g>
    <g id="ytick_5">
     <g id="line2d_21">
      <path clip-path="url(#p0ff561b8dd)" d="M 108 78.818961 
L 777.6 78.818961 
" style="fill:none;stroke:#b0b0b0;stroke-linecap:square;stroke-width:0.8;"/>
     </g>
     <g id="line2d_22">
      <g>
       <use style="stroke:#000000;stroke-width:0.8;" x="108" xlink:href="#m393f5f9a89" y="78.818961"/>
      </g>
     </g>
     <g id="text_12">
      <!-- 20 -->
      <g transform="translate(88.275 82.61818)scale(0.1 -0.1)">
       <use xlink:href="#DejaVuSans-32"/>
       <use x="63.623047" xlink:href="#DejaVuSans-30"/>
      </g>
     </g>
    </g>
    <g id="text_13">
     <!-- Score -->
     <defs>
      <path d="M 53.515625 70.515625 
L 53.515625 60.890625 
Q 47.90625 63.578125 42.921875 64.890625 
Q 37.9375 66.21875 33.296875 66.21875 
Q 25.25 66.21875 20.875 63.09375 
Q 16.5 59.96875 16.5 54.203125 
Q 16.5 49.359375 19.40625 46.890625 
Q 22.3125 44.4375 30.421875 42.921875 
L 36.375 41.703125 
Q 47.40625 39.59375 52.65625 34.296875 
Q 57.90625 29 57.90625 20.125 
Q 57.90625 9.515625 50.796875 4.046875 
Q 43.703125 -1.421875 29.984375 -1.421875 
Q 24.8125 -1.421875 18.96875 -0.25 
Q 13.140625 0.921875 6.890625 3.21875 
L 6.890625 13.375 
Q 12.890625 10.015625 18.65625 8.296875 
Q 24.421875 6.59375 29.984375 6.59375 
Q 38.421875 6.59375 43.015625 9.90625 
Q 47.609375 13.234375 47.609375 19.390625 
Q 47.609375 24.75 44.3125 27.78125 
Q 41.015625 30.8125 33.5 32.328125 
L 27.484375 33.5 
Q 16.453125 35.6875 11.515625 40.375 
Q 6.59375 45.0625 6.59375 53.421875 
Q 6.59375 63.09375 13.40625 68.65625 
Q 20.21875 74.21875 32.171875 74.21875 
Q 37.3125 74.21875 42.625 73.28125 
Q 47.953125 72.359375 53.515625 70.515625 
z
" id="DejaVuSans-53"/>
      <path d="M 48.78125 52.59375 
L 48.78125 44.1875 
Q 44.96875 46.296875 41.140625 47.34375 
Q 37.3125 48.390625 33.40625 48.390625 
Q 24.65625 48.390625 19.8125 42.84375 
Q 14.984375 37.3125 14.984375 27.296875 
Q 14.984375 17.28125 19.8125 11.734375 
Q 24.65625 6.203125 33.40625 6.203125 
Q 37.3125 6.203125 41.140625 7.25 
Q 44.96875 8.296875 48.78125 10.40625 
L 48.78125 2.09375 
Q 45.015625 0.34375 40.984375 -0.53125 
Q 36.96875 -1.421875 32.421875 -1.421875 
Q 20.0625 -1.421875 12.78125 6.34375 
Q 5.515625 14.109375 5.515625 27.296875 
Q 5.515625 40.671875 12.859375 48.328125 
Q 20.21875 56 33.015625 56 
Q 37.15625 56 41.109375 55.140625 
Q 45.0625 54.296875 48.78125 52.59375 
z
" id="DejaVuSans-63"/>
      <path d="M 41.109375 46.296875 
Q 39.59375 47.171875 37.8125 47.578125 
Q 36.03125 48 33.890625 48 
Q 26.265625 48 22.1875 43.046875 
Q 18.109375 38.09375 18.109375 28.8125 
L 18.109375 0 
L 9.078125 0 
L 9.078125 54.6875 
L 18.109375 54.6875 
L 18.109375 46.1875 
Q 20.953125 51.171875 25.484375 53.578125 
Q 30.03125 56 36.53125 56 
Q 37.453125 56 38.578125 55.875 
Q 39.703125 55.765625 41.0625 55.515625 
z
" id="DejaVuSans-72"/>
     </defs>
     <g transform="translate(82.195312 336.493281)rotate(-90)scale(0.1 -0.1)">
      <use xlink:href="#DejaVuSans-53"/>
      <use x="63.476562" xlink:href="#DejaVuSans-63"/>
      <use x="118.457031" xlink:href="#DejaVuSans-6f"/>
      <use x="179.638672" xlink:href="#DejaVuSans-72"/>
      <use x="220.720703" xlink:href="#DejaVuSans-65"/>
     </g>
    </g>
   </g>
   <g id="line2d_23">
    <path clip-path="url(#p0ff561b8dd)" d="M 138.436364 523.582597 
L 139.707193 502.403377 
L 140.978022 544.761818 
L 142.248852 502.403377 
L 143.519681 523.582597 
L 144.790511 523.582597 
L 146.06134 481.224156 
L 147.332169 502.403377 
L 149.873828 502.403377 
L 152.415487 544.761818 
L 153.686316 481.224156 
L 154.957146 502.403377 
L 156.227975 502.403377 
L 157.498804 481.224156 
L 158.769634 502.403377 
L 160.040463 481.224156 
L 161.311292 523.582597 
L 162.582122 502.403377 
L 172.748757 502.403377 
L 174.019586 523.582597 
L 175.290416 481.224156 
L 177.832074 481.224156 
L 180.373733 523.582597 
L 181.644563 502.403377 
L 182.915392 502.403377 
L 184.186221 481.224156 
L 185.457051 481.224156 
L 186.72788 544.761818 
L 187.998709 481.224156 
L 189.269539 460.044935 
L 190.540368 502.403377 
L 191.811198 460.044935 
L 193.082027 502.403377 
L 194.352856 523.582597 
L 195.623686 523.582597 
L 196.894515 481.224156 
L 199.436174 481.224156 
L 200.707003 544.761818 
L 201.977833 502.403377 
L 203.248662 502.403377 
L 204.519491 481.224156 
L 205.790321 502.403377 
L 209.602809 502.403377 
L 210.873638 396.507273 
L 212.144468 460.044935 
L 214.686126 544.761818 
L 215.956956 417.686494 
L 217.227785 523.582597 
L 218.498615 481.224156 
L 219.769444 460.044935 
L 221.040273 460.044935 
L 222.311103 502.403377 
L 223.581932 481.224156 
L 224.852761 481.224156 
L 226.123591 460.044935 
L 227.39442 481.224156 
L 228.66525 438.865714 
L 229.936079 438.865714 
L 231.206908 481.224156 
L 232.477738 502.403377 
L 233.748567 481.224156 
L 235.019396 481.224156 
L 236.290226 460.044935 
L 238.831885 502.403377 
L 240.102714 502.403377 
L 241.373543 375.328052 
L 242.644373 481.224156 
L 243.915202 502.403377 
L 245.186032 481.224156 
L 246.456861 502.403377 
L 247.72769 417.686494 
L 248.99852 438.865714 
L 250.269349 481.224156 
L 251.540178 460.044935 
L 252.811008 354.148831 
L 254.081837 481.224156 
L 256.623496 481.224156 
L 257.894325 438.865714 
L 259.165155 417.686494 
L 260.435984 502.403377 
L 261.706813 523.582597 
L 262.977643 438.865714 
L 265.519302 481.224156 
L 266.790131 438.865714 
L 268.06096 523.582597 
L 269.33179 396.507273 
L 270.602619 460.044935 
L 271.873448 481.224156 
L 273.144278 481.224156 
L 274.415107 438.865714 
L 275.685937 481.224156 
L 276.956766 544.761818 
L 278.227595 438.865714 
L 280.769254 396.507273 
L 282.040084 523.582597 
L 283.310913 460.044935 
L 284.581742 438.865714 
L 285.852572 460.044935 
L 287.123401 417.686494 
L 288.39423 502.403377 
L 289.66506 417.686494 
L 290.935889 417.686494 
L 292.206719 502.403377 
L 293.477548 481.224156 
L 294.748377 396.507273 
L 296.019207 396.507273 
L 297.290036 438.865714 
L 298.560865 502.403377 
L 299.831695 502.403377 
L 301.102524 438.865714 
L 302.373354 481.224156 
L 303.644183 438.865714 
L 304.915012 354.148831 
L 306.185842 523.582597 
L 308.7275 481.224156 
L 309.99833 438.865714 
L 311.269159 481.224156 
L 312.539989 375.328052 
L 313.810818 460.044935 
L 315.081647 438.865714 
L 316.352477 502.403377 
L 317.623306 481.224156 
L 318.894136 438.865714 
L 320.164965 354.148831 
L 321.435794 523.582597 
L 322.706624 396.507273 
L 323.977453 438.865714 
L 325.248282 460.044935 
L 326.519112 396.507273 
L 327.789941 460.044935 
L 329.060771 481.224156 
L 330.3316 396.507273 
L 331.602429 417.686494 
L 332.873259 354.148831 
L 334.144088 523.582597 
L 335.414917 375.328052 
L 339.227406 438.865714 
L 340.498235 417.686494 
L 341.769064 354.148831 
L 343.039894 460.044935 
L 344.310723 417.686494 
L 346.852382 375.328052 
L 348.123211 396.507273 
L 349.394041 438.865714 
L 350.66487 311.79039 
L 351.935699 396.507273 
L 353.206529 396.507273 
L 354.477358 438.865714 
L 355.748188 396.507273 
L 357.019017 438.865714 
L 358.289846 438.865714 
L 359.560676 417.686494 
L 360.831505 460.044935 
L 362.102334 354.148831 
L 363.373164 396.507273 
L 364.643993 332.96961 
L 365.914823 396.507273 
L 367.185652 354.148831 
L 369.727311 354.148831 
L 370.99814 290.611169 
L 372.268969 481.224156 
L 373.539799 332.96961 
L 374.810628 438.865714 
L 376.081458 396.507273 
L 377.352287 460.044935 
L 378.623116 417.686494 
L 381.164775 460.044935 
L 382.435604 396.507273 
L 383.706434 460.044935 
L 384.977263 332.96961 
L 386.248093 438.865714 
L 390.060581 375.328052 
L 391.33141 417.686494 
L 392.60224 354.148831 
L 393.873069 311.79039 
L 395.143898 354.148831 
L 396.414728 375.328052 
L 397.685557 417.686494 
L 398.956386 396.507273 
L 400.227216 332.96961 
L 401.498045 311.79039 
L 402.768875 375.328052 
L 404.039704 354.148831 
L 405.310533 481.224156 
L 406.581363 311.79039 
L 407.852192 438.865714 
L 409.123021 311.79039 
L 410.393851 417.686494 
L 411.66468 460.044935 
L 414.206339 248.252727 
L 415.477168 354.148831 
L 416.747998 311.79039 
L 418.018827 502.403377 
L 419.289656 396.507273 
L 421.831315 311.79039 
L 423.102145 375.328052 
L 424.372974 332.96961 
L 425.643803 417.686494 
L 428.185462 332.96961 
L 429.456292 375.328052 
L 430.727121 375.328052 
L 431.99795 460.044935 
L 433.26878 332.96961 
L 434.539609 354.148831 
L 437.081268 311.79039 
L 438.352097 417.686494 
L 439.622927 396.507273 
L 440.893756 332.96961 
L 442.164585 311.79039 
L 443.435415 354.148831 
L 444.706244 417.686494 
L 445.977073 417.686494 
L 447.247903 396.507273 
L 448.518732 184.715065 
L 449.789562 290.611169 
L 452.33122 375.328052 
L 453.60205 290.611169 
L 454.872879 375.328052 
L 456.143708 227.073506 
L 457.414538 227.073506 
L 458.685367 311.79039 
L 459.956197 438.865714 
L 461.227026 438.865714 
L 463.768685 311.79039 
L 465.039514 269.431948 
L 466.310344 311.79039 
L 467.581173 438.865714 
L 470.122832 311.79039 
L 471.393661 375.328052 
L 472.66449 248.252727 
L 473.93532 354.148831 
L 475.206149 396.507273 
L 476.476979 311.79039 
L 477.747808 438.865714 
L 479.018637 396.507273 
L 480.289467 460.044935 
L 481.560296 332.96961 
L 482.831125 332.96961 
L 484.101955 396.507273 
L 485.372784 332.96961 
L 486.643614 375.328052 
L 487.914443 332.96961 
L 489.185272 396.507273 
L 490.456102 269.431948 
L 491.726931 332.96961 
L 492.99776 269.431948 
L 494.26859 269.431948 
L 495.539419 375.328052 
L 496.810249 269.431948 
L 498.081078 417.686494 
L 499.351907 311.79039 
L 500.622737 417.686494 
L 501.893566 290.611169 
L 503.164396 311.79039 
L 504.435225 311.79039 
L 505.706054 354.148831 
L 506.976884 375.328052 
L 508.247713 311.79039 
L 509.518542 269.431948 
L 510.789372 332.96961 
L 512.060201 438.865714 
L 513.331031 248.252727 
L 514.60186 311.79039 
L 515.872689 311.79039 
L 517.143519 332.96961 
L 518.414348 290.611169 
L 519.685177 502.403377 
L 520.956007 205.894286 
L 522.226836 332.96961 
L 523.497666 248.252727 
L 524.768495 417.686494 
L 526.039324 269.431948 
L 527.310154 354.148831 
L 528.580983 269.431948 
L 529.851812 332.96961 
L 531.122642 227.073506 
L 532.393471 163.535844 
L 533.664301 205.894286 
L 534.93513 354.148831 
L 536.205959 290.611169 
L 537.476789 375.328052 
L 538.747618 184.715065 
L 540.018448 205.894286 
L 541.289277 290.611169 
L 542.560106 205.894286 
L 543.830936 269.431948 
L 545.101765 290.611169 
L 546.372594 248.252727 
L 547.643424 290.611169 
L 548.914253 396.507273 
L 550.185083 227.073506 
L 551.455912 269.431948 
L 552.726741 290.611169 
L 553.997571 142.356623 
L 555.2684 227.073506 
L 556.539229 290.611169 
L 557.810059 311.79039 
L 559.080888 269.431948 
L 560.351718 290.611169 
L 561.622547 142.356623 
L 562.893376 269.431948 
L 564.164206 417.686494 
L 565.435035 332.96961 
L 566.705864 184.715065 
L 567.976694 184.715065 
L 569.247523 311.79039 
L 570.518353 375.328052 
L 571.789182 311.79039 
L 573.060011 375.328052 
L 574.330841 163.535844 
L 575.60167 269.431948 
L 576.8725 269.431948 
L 578.143329 354.148831 
L 579.414158 375.328052 
L 580.684988 248.252727 
L 581.955817 311.79039 
L 583.226646 311.79039 
L 584.497476 290.611169 
L 585.768305 417.686494 
L 587.039135 248.252727 
L 588.309964 523.582597 
L 589.580793 248.252727 
L 593.393281 248.252727 
L 594.664111 311.79039 
L 595.93494 354.148831 
L 597.20577 227.073506 
L 598.476599 438.865714 
L 599.747428 290.611169 
L 601.018258 311.79039 
L 602.289087 290.611169 
L 603.559916 248.252727 
L 604.830746 184.715065 
L 606.101575 184.715065 
L 608.643234 311.79039 
L 609.914063 184.715065 
L 611.184893 163.535844 
L 612.455722 332.96961 
L 613.726552 248.252727 
L 614.997381 184.715065 
L 616.26821 332.96961 
L 617.53904 332.96961 
L 618.809869 163.535844 
L 620.080698 269.431948 
L 621.351528 248.252727 
L 622.622357 311.79039 
L 623.893187 269.431948 
L 625.164016 248.252727 
L 627.705675 332.96961 
L 628.976504 269.431948 
L 630.247333 311.79039 
L 631.518163 290.611169 
L 634.059822 290.611169 
L 635.330651 142.356623 
L 636.60148 142.356623 
L 637.87231 311.79039 
L 639.143139 311.79039 
L 640.413968 142.356623 
L 644.226457 269.431948 
L 645.497286 184.715065 
L 646.768115 269.431948 
L 648.038945 248.252727 
L 649.309774 269.431948 
L 650.580604 163.535844 
L 651.851433 311.79039 
L 653.122262 184.715065 
L 654.393092 184.715065 
L 655.663921 205.894286 
L 656.93475 290.611169 
L 658.20558 311.79039 
L 659.476409 354.148831 
L 660.747239 163.535844 
L 662.018068 227.073506 
L 663.288897 269.431948 
L 664.559727 354.148831 
L 667.101385 227.073506 
L 668.372215 142.356623 
L 669.643044 121.177403 
L 670.913874 269.431948 
L 672.184703 269.431948 
L 673.455532 142.356623 
L 674.726362 142.356623 
L 675.997191 417.686494 
L 677.26802 184.715065 
L 678.53885 142.356623 
L 679.809679 205.894286 
L 681.080509 142.356623 
L 682.351338 354.148831 
L 683.622167 227.073506 
L 684.892997 269.431948 
L 686.163826 227.073506 
L 687.434656 163.535844 
L 688.705485 290.611169 
L 689.976314 184.715065 
L 691.247144 290.611169 
L 692.517973 184.715065 
L 693.788802 227.073506 
L 695.059632 99.998182 
L 697.601291 184.715065 
L 698.87212 121.177403 
L 700.142949 184.715065 
L 701.413779 227.073506 
L 702.684608 205.894286 
L 703.955437 290.611169 
L 705.226267 248.252727 
L 706.497096 269.431948 
L 707.767926 311.79039 
L 709.038755 184.715065 
L 710.309584 332.96961 
L 711.580414 184.715065 
L 712.851243 227.073506 
L 714.122072 332.96961 
L 715.392902 163.535844 
L 716.663731 184.715065 
L 717.934561 163.535844 
L 719.20539 248.252727 
L 720.476219 248.252727 
L 721.747049 205.894286 
L 723.017878 248.252727 
L 724.288708 142.356623 
L 725.559537 227.073506 
L 726.830366 205.894286 
L 729.372025 248.252727 
L 730.642854 227.073506 
L 731.913684 227.073506 
L 733.184513 184.715065 
L 734.455343 184.715065 
L 735.726172 142.356623 
L 736.997001 227.073506 
L 738.267831 205.894286 
L 739.53866 121.177403 
L 740.809489 269.431948 
L 742.080319 99.998182 
L 743.351148 99.998182 
L 744.621978 269.431948 
L 745.892807 163.535844 
L 747.163636 184.715065 
L 747.163636 184.715065 
" style="fill:none;stroke:#1f77b4;stroke-linecap:square;stroke-width:1.5;"/>
   </g>
   <g id="patch_3">
    <path d="M 108 567 
L 108 77.76 
" style="fill:none;stroke:#000000;stroke-linecap:square;stroke-linejoin:miter;stroke-width:0.8;"/>
   </g>
   <g id="patch_4">
    <path d="M 777.6 567 
L 777.6 77.76 
" style="fill:none;stroke:#000000;stroke-linecap:square;stroke-linejoin:miter;stroke-width:0.8;"/>
   </g>
   <g id="patch_5">
    <path d="M 108 567 
L 777.6 567 
" style="fill:none;stroke:#000000;stroke-linecap:square;stroke-linejoin:miter;stroke-width:0.8;"/>
   </g>
   <g id="patch_6">
    <path d="M 108 77.76 
L 777.6 77.76 
" style="fill:none;stroke:#000000;stroke-linecap:square;stroke-linejoin:miter;stroke-width:0.8;"/>
   </g>
  </g>
 </g>
 <defs>
  <clipPath id="p0ff561b8dd">
   <rect height="489.24" width="669.6" x="108" y="77.76"/>
  </clipPath>
 </defs>
</svg>
