<?xml version="1.0" encoding="utf-8" standalone="no"?>
<!DOCTYPE svg PUBLIC "-//W3C//DTD SVG 1.1//EN"
  "http://www.w3.org/Graphics/SVG/1.1/DTD/svg11.dtd">
<!-- Created with matplotlib (http://matplotlib.org/) -->
<svg height="648pt" version="1.1" viewBox="0 0 864 648" width="864pt" xmlns="http://www.w3.org/2000/svg" xmlns:xlink="http://www.w3.org/1999/xlink">
 <defs>
  <style type="text/css">
*{stroke-linecap:butt;stroke-linejoin:round;}
  </style>
 </defs>
 <g id="figure_1">
  <g id="patch_1">
   <path d="M 0 648 
L 864 648 
L 864 0 
L 0 0 
z
" style="fill:#ffffff;"/>
  </g>
  <g id="axes_1">
   <g id="patch_2">
    <path d="M 108 567 
L 777.6 567 
L 777.6 77.76 
L 108 77.76 
z
" style="fill:#ffffff;"/>
   </g>
   <g id="matplotlib.axis_1">
    <g id="xtick_1">
     <g id="line2d_1">
      <path clip-path="url(#p87fb531d1b)" d="M 138.436364 567 
L 138.436364 77.76 
" style="fill:none;stroke:#b0b0b0;stroke-linecap:square;stroke-width:0.8;"/>
     </g>
     <g id="line2d_2">
      <defs>
       <path d="M 0 0 
L 0 3.5 
" id="me88d7f382e" style="stroke:#000000;stroke-width:0.8;"/>
      </defs>
      <g>
       <use style="stroke:#000000;stroke-width:0.8;" x="138.436364" xlink:href="#me88d7f382e" y="567"/>
      </g>
     </g>
     <g id="text_1">
      <!-- 0 -->
      <defs>
       <path d="M 31.78125 66.40625 
Q 24.171875 66.40625 20.328125 58.90625 
Q 16.5 51.421875 16.5 36.375 
Q 16.5 21.390625 20.328125 13.890625 
Q 24.171875 6.390625 31.78125 6.390625 
Q 39.453125 6.390625 43.28125 13.890625 
Q 47.125 21.390625 47.125 36.375 
Q 47.125 51.421875 43.28125 58.90625 
Q 39.453125 66.40625 31.78125 66.40625 
z
M 31.78125 74.21875 
Q 44.046875 74.21875 50.515625 64.515625 
Q 56.984375 54.828125 56.984375 36.375 
Q 56.984375 17.96875 50.515625 8.265625 
Q 44.046875 -1.421875 31.78125 -1.421875 
Q 19.53125 -1.421875 13.0625 8.265625 
Q 6.59375 17.96875 6.59375 36.375 
Q 6.59375 54.828125 13.0625 64.515625 
Q 19.53125 74.21875 31.78125 74.21875 
z
" id="DejaVuSans-30"/>
      </defs>
      <g transform="translate(135.255114 581.598438)scale(0.1 -0.1)">
       <use xlink:href="#DejaVuSans-30"/>
      </g>
     </g>
    </g>
    <g id="xtick_2">
     <g id="line2d_3">
      <path clip-path="url(#p87fb531d1b)" d="M 253.290566 567 
L 253.290566 77.76 
" style="fill:none;stroke:#b0b0b0;stroke-linecap:square;stroke-width:0.8;"/>
     </g>
     <g id="line2d_4">
      <g>
       <use style="stroke:#000000;stroke-width:0.8;" x="253.290566" xlink:href="#me88d7f382e" y="567"/>
      </g>
     </g>
     <g id="text_2">
      <!-- 100 -->
      <defs>
       <path d="M 12.40625 8.296875 
L 28.515625 8.296875 
L 28.515625 63.921875 
L 10.984375 60.40625 
L 10.984375 69.390625 
L 28.421875 72.90625 
L 38.28125 72.90625 
L 38.28125 8.296875 
L 54.390625 8.296875 
L 54.390625 0 
L 12.40625 0 
z
" id="DejaVuSans-31"/>
      </defs>
      <g transform="translate(243.746816 581.598438)scale(0.1 -0.1)">
       <use xlink:href="#DejaVuSans-31"/>
       <use x="63.623047" xlink:href="#DejaVuSans-30"/>
       <use x="127.246094" xlink:href="#DejaVuSans-30"/>
      </g>
     </g>
    </g>
    <g id="xtick_3">
     <g id="line2d_5">
      <path clip-path="url(#p87fb531d1b)" d="M 368.144768 567 
L 368.144768 77.76 
" style="fill:none;stroke:#b0b0b0;stroke-linecap:square;stroke-width:0.8;"/>
     </g>
     <g id="line2d_6">
      <g>
       <use style="stroke:#000000;stroke-width:0.8;" x="368.144768" xlink:href="#me88d7f382e" y="567"/>
      </g>
     </g>
     <g id="text_3">
      <!-- 200 -->
      <defs>
       <path d="M 19.1875 8.296875 
L 53.609375 8.296875 
L 53.609375 0 
L 7.328125 0 
L 7.328125 8.296875 
Q 12.9375 14.109375 22.625 23.890625 
Q 32.328125 33.6875 34.8125 36.53125 
Q 39.546875 41.84375 41.421875 45.53125 
Q 43.3125 49.21875 43.3125 52.78125 
Q 43.3125 58.59375 39.234375 62.25 
Q 35.15625 65.921875 28.609375 65.921875 
Q 23.96875 65.921875 18.8125 64.3125 
Q 13.671875 62.703125 7.8125 59.421875 
L 7.8125 69.390625 
Q 13.765625 71.78125 18.9375 73 
Q 24.125 74.21875 28.421875 74.21875 
Q 39.75 74.21875 46.484375 68.546875 
Q 53.21875 62.890625 53.21875 53.421875 
Q 53.21875 48.921875 51.53125 44.890625 
Q 49.859375 40.875 45.40625 35.40625 
Q 44.1875 33.984375 37.640625 27.21875 
Q 31.109375 20.453125 19.1875 8.296875 
z
" id="DejaVuSans-32"/>
      </defs>
      <g transform="translate(358.601018 581.598438)scale(0.1 -0.1)">
       <use xlink:href="#DejaVuSans-32"/>
       <use x="63.623047" xlink:href="#DejaVuSans-30"/>
       <use x="127.246094" xlink:href="#DejaVuSans-30"/>
      </g>
     </g>
    </g>
    <g id="xtick_4">
     <g id="line2d_7">
      <path clip-path="url(#p87fb531d1b)" d="M 482.998971 567 
L 482.998971 77.76 
" style="fill:none;stroke:#b0b0b0;stroke-linecap:square;stroke-width:0.8;"/>
     </g>
     <g id="line2d_8">
      <g>
       <use style="stroke:#000000;stroke-width:0.8;" x="482.998971" xlink:href="#me88d7f382e" y="567"/>
      </g>
     </g>
     <g id="text_4">
      <!-- 300 -->
      <defs>
       <path d="M 40.578125 39.3125 
Q 47.65625 37.796875 51.625 33 
Q 55.609375 28.21875 55.609375 21.1875 
Q 55.609375 10.40625 48.1875 4.484375 
Q 40.765625 -1.421875 27.09375 -1.421875 
Q 22.515625 -1.421875 17.65625 -0.515625 
Q 12.796875 0.390625 7.625 2.203125 
L 7.625 11.71875 
Q 11.71875 9.328125 16.59375 8.109375 
Q 21.484375 6.890625 26.8125 6.890625 
Q 36.078125 6.890625 40.9375 10.546875 
Q 45.796875 14.203125 45.796875 21.1875 
Q 45.796875 27.640625 41.28125 31.265625 
Q 36.765625 34.90625 28.71875 34.90625 
L 20.21875 34.90625 
L 20.21875 43.015625 
L 29.109375 43.015625 
Q 36.375 43.015625 40.234375 45.921875 
Q 44.09375 48.828125 44.09375 54.296875 
Q 44.09375 59.90625 40.109375 62.90625 
Q 36.140625 65.921875 28.71875 65.921875 
Q 24.65625 65.921875 20.015625 65.03125 
Q 15.375 64.15625 9.8125 62.3125 
L 9.8125 71.09375 
Q 15.4375 72.65625 20.34375 73.4375 
Q 25.25 74.21875 29.59375 74.21875 
Q 40.828125 74.21875 47.359375 69.109375 
Q 53.90625 64.015625 53.90625 55.328125 
Q 53.90625 49.265625 50.4375 45.09375 
Q 46.96875 40.921875 40.578125 39.3125 
z
" id="DejaVuSans-33"/>
      </defs>
      <g transform="translate(473.455221 581.598438)scale(0.1 -0.1)">
       <use xlink:href="#DejaVuSans-33"/>
       <use x="63.623047" xlink:href="#DejaVuSans-30"/>
       <use x="127.246094" xlink:href="#DejaVuSans-30"/>
      </g>
     </g>
    </g>
    <g id="xtick_5">
     <g id="line2d_9">
      <path clip-path="url(#p87fb531d1b)" d="M 597.853173 567 
L 597.853173 77.76 
" style="fill:none;stroke:#b0b0b0;stroke-linecap:square;stroke-width:0.8;"/>
     </g>
     <g id="line2d_10">
      <g>
       <use style="stroke:#000000;stroke-width:0.8;" x="597.853173" xlink:href="#me88d7f382e" y="567"/>
      </g>
     </g>
     <g id="text_5">
      <!-- 400 -->
      <defs>
       <path d="M 37.796875 64.3125 
L 12.890625 25.390625 
L 37.796875 25.390625 
z
M 35.203125 72.90625 
L 47.609375 72.90625 
L 47.609375 25.390625 
L 58.015625 25.390625 
L 58.015625 17.1875 
L 47.609375 17.1875 
L 47.609375 0 
L 37.796875 0 
L 37.796875 17.1875 
L 4.890625 17.1875 
L 4.890625 26.703125 
z
" id="DejaVuSans-34"/>
      </defs>
      <g transform="translate(588.309423 581.598438)scale(0.1 -0.1)">
       <use xlink:href="#DejaVuSans-34"/>
       <use x="63.623047" xlink:href="#DejaVuSans-30"/>
       <use x="127.246094" xlink:href="#DejaVuSans-30"/>
      </g>
     </g>
    </g>
    <g id="xtick_6">
     <g id="line2d_11">
      <path clip-path="url(#p87fb531d1b)" d="M 712.707376 567 
L 712.707376 77.76 
" style="fill:none;stroke:#b0b0b0;stroke-linecap:square;stroke-width:0.8;"/>
     </g>
     <g id="line2d_12">
      <g>
       <use style="stroke:#000000;stroke-width:0.8;" x="712.707376" xlink:href="#me88d7f382e" y="567"/>
      </g>
     </g>
     <g id="text_6">
      <!-- 500 -->
      <defs>
       <path d="M 10.796875 72.90625 
L 49.515625 72.90625 
L 49.515625 64.59375 
L 19.828125 64.59375 
L 19.828125 46.734375 
Q 21.96875 47.46875 24.109375 47.828125 
Q 26.265625 48.1875 28.421875 48.1875 
Q 40.625 48.1875 47.75 41.5 
Q 54.890625 34.8125 54.890625 23.390625 
Q 54.890625 11.625 47.5625 5.09375 
Q 40.234375 -1.421875 26.90625 -1.421875 
Q 22.3125 -1.421875 17.546875 -0.640625 
Q 12.796875 0.140625 7.71875 1.703125 
L 7.71875 11.625 
Q 12.109375 9.234375 16.796875 8.0625 
Q 21.484375 6.890625 26.703125 6.890625 
Q 35.15625 6.890625 40.078125 11.328125 
Q 45.015625 15.765625 45.015625 23.390625 
Q 45.015625 31 40.078125 35.4375 
Q 35.15625 39.890625 26.703125 39.890625 
Q 22.75 39.890625 18.8125 39.015625 
Q 14.890625 38.140625 10.796875 36.28125 
z
" id="DejaVuSans-35"/>
      </defs>
      <g transform="translate(703.163626 581.598438)scale(0.1 -0.1)">
       <use xlink:href="#DejaVuSans-35"/>
       <use x="63.623047" xlink:href="#DejaVuSans-30"/>
       <use x="127.246094" xlink:href="#DejaVuSans-30"/>
      </g>
     </g>
    </g>
    <g id="text_7">
     <!-- Episode # -->
     <defs>
      <path d="M 9.8125 72.90625 
L 55.90625 72.90625 
L 55.90625 64.59375 
L 19.671875 64.59375 
L 19.671875 43.015625 
L 54.390625 43.015625 
L 54.390625 34.71875 
L 19.671875 34.71875 
L 19.671875 8.296875 
L 56.78125 8.296875 
L 56.78125 0 
L 9.8125 0 
z
" id="DejaVuSans-45"/>
      <path d="M 18.109375 8.203125 
L 18.109375 -20.796875 
L 9.078125 -20.796875 
L 9.078125 54.6875 
L 18.109375 54.6875 
L 18.109375 46.390625 
Q 20.953125 51.265625 25.265625 53.625 
Q 29.59375 56 35.59375 56 
Q 45.5625 56 51.78125 48.09375 
Q 58.015625 40.1875 58.015625 27.296875 
Q 58.015625 14.40625 51.78125 6.484375 
Q 45.5625 -1.421875 35.59375 -1.421875 
Q 29.59375 -1.421875 25.265625 0.953125 
Q 20.953125 3.328125 18.109375 8.203125 
z
M 48.6875 27.296875 
Q 48.6875 37.203125 44.609375 42.84375 
Q 40.53125 48.484375 33.40625 48.484375 
Q 26.265625 48.484375 22.1875 42.84375 
Q 18.109375 37.203125 18.109375 27.296875 
Q 18.109375 17.390625 22.1875 11.75 
Q 26.265625 6.109375 33.40625 6.109375 
Q 40.53125 6.109375 44.609375 11.75 
Q 48.6875 17.390625 48.6875 27.296875 
z
" id="DejaVuSans-70"/>
      <path d="M 9.421875 54.6875 
L 18.40625 54.6875 
L 18.40625 0 
L 9.421875 0 
z
M 9.421875 75.984375 
L 18.40625 75.984375 
L 18.40625 64.59375 
L 9.421875 64.59375 
z
" id="DejaVuSans-69"/>
      <path d="M 44.28125 53.078125 
L 44.28125 44.578125 
Q 40.484375 46.53125 36.375 47.5 
Q 32.28125 48.484375 27.875 48.484375 
Q 21.1875 48.484375 17.84375 46.4375 
Q 14.5 44.390625 14.5 40.28125 
Q 14.5 37.15625 16.890625 35.375 
Q 19.28125 33.59375 26.515625 31.984375 
L 29.59375 31.296875 
Q 39.15625 29.25 43.1875 25.515625 
Q 47.21875 21.78125 47.21875 15.09375 
Q 47.21875 7.46875 41.1875 3.015625 
Q 35.15625 -1.421875 24.609375 -1.421875 
Q 20.21875 -1.421875 15.453125 -0.5625 
Q 10.6875 0.296875 5.421875 2 
L 5.421875 11.28125 
Q 10.40625 8.6875 15.234375 7.390625 
Q 20.0625 6.109375 24.8125 6.109375 
Q 31.15625 6.109375 34.5625 8.28125 
Q 37.984375 10.453125 37.984375 14.40625 
Q 37.984375 18.0625 35.515625 20.015625 
Q 33.0625 21.96875 24.703125 23.78125 
L 21.578125 24.515625 
Q 13.234375 26.265625 9.515625 29.90625 
Q 5.8125 33.546875 5.8125 39.890625 
Q 5.8125 47.609375 11.28125 51.796875 
Q 16.75 56 26.8125 56 
Q 31.78125 56 36.171875 55.265625 
Q 40.578125 54.546875 44.28125 53.078125 
z
" id="DejaVuSans-73"/>
      <path d="M 30.609375 48.390625 
Q 23.390625 48.390625 19.1875 42.75 
Q 14.984375 37.109375 14.984375 27.296875 
Q 14.984375 17.484375 19.15625 11.84375 
Q 23.34375 6.203125 30.609375 6.203125 
Q 37.796875 6.203125 41.984375 11.859375 
Q 46.1875 17.53125 46.1875 27.296875 
Q 46.1875 37.015625 41.984375 42.703125 
Q 37.796875 48.390625 30.609375 48.390625 
z
M 30.609375 56 
Q 42.328125 56 49.015625 48.375 
Q 55.71875 40.765625 55.71875 27.296875 
Q 55.71875 13.875 49.015625 6.21875 
Q 42.328125 -1.421875 30.609375 -1.421875 
Q 18.84375 -1.421875 12.171875 6.21875 
Q 5.515625 13.875 5.515625 27.296875 
Q 5.515625 40.765625 12.171875 48.375 
Q 18.84375 56 30.609375 56 
z
" id="DejaVuSans-6f"/>
      <path d="M 45.40625 46.390625 
L 45.40625 75.984375 
L 54.390625 75.984375 
L 54.390625 0 
L 45.40625 0 
L 45.40625 8.203125 
Q 42.578125 3.328125 38.25 0.953125 
Q 33.9375 -1.421875 27.875 -1.421875 
Q 17.96875 -1.421875 11.734375 6.484375 
Q 5.515625 14.40625 5.515625 27.296875 
Q 5.515625 40.1875 11.734375 48.09375 
Q 17.96875 56 27.875 56 
Q 33.9375 56 38.25 53.625 
Q 42.578125 51.265625 45.40625 46.390625 
z
M 14.796875 27.296875 
Q 14.796875 17.390625 18.875 11.75 
Q 22.953125 6.109375 30.078125 6.109375 
Q 37.203125 6.109375 41.296875 11.75 
Q 45.40625 17.390625 45.40625 27.296875 
Q 45.40625 37.203125 41.296875 42.84375 
Q 37.203125 48.484375 30.078125 48.484375 
Q 22.953125 48.484375 18.875 42.84375 
Q 14.796875 37.203125 14.796875 27.296875 
z
" id="DejaVuSans-64"/>
      <path d="M 56.203125 29.59375 
L 56.203125 25.203125 
L 14.890625 25.203125 
Q 15.484375 15.921875 20.484375 11.0625 
Q 25.484375 6.203125 34.421875 6.203125 
Q 39.59375 6.203125 44.453125 7.46875 
Q 49.3125 8.734375 54.109375 11.28125 
L 54.109375 2.78125 
Q 49.265625 0.734375 44.1875 -0.34375 
Q 39.109375 -1.421875 33.890625 -1.421875 
Q 20.796875 -1.421875 13.15625 6.1875 
Q 5.515625 13.8125 5.515625 26.8125 
Q 5.515625 40.234375 12.765625 48.109375 
Q 20.015625 56 32.328125 56 
Q 43.359375 56 49.78125 48.890625 
Q 56.203125 41.796875 56.203125 29.59375 
z
M 47.21875 32.234375 
Q 47.125 39.59375 43.09375 43.984375 
Q 39.0625 48.390625 32.421875 48.390625 
Q 24.90625 48.390625 20.390625 44.140625 
Q 15.875 39.890625 15.1875 32.171875 
z
" id="DejaVuSans-65"/>
      <path id="DejaVuSans-20"/>
      <path d="M 51.125 44 
L 36.921875 44 
L 32.8125 27.6875 
L 47.125 27.6875 
z
M 43.796875 71.78125 
L 38.71875 51.515625 
L 52.984375 51.515625 
L 58.109375 71.78125 
L 65.921875 71.78125 
L 60.890625 51.515625 
L 76.125 51.515625 
L 76.125 44 
L 58.984375 44 
L 54.984375 27.6875 
L 70.515625 27.6875 
L 70.515625 20.21875 
L 53.078125 20.21875 
L 48 0 
L 40.1875 0 
L 45.21875 20.21875 
L 30.90625 20.21875 
L 25.875 0 
L 18.015625 0 
L 23.09375 20.21875 
L 7.71875 20.21875 
L 7.71875 27.6875 
L 24.90625 27.6875 
L 29 44 
L 13.28125 44 
L 13.28125 51.515625 
L 30.90625 51.515625 
L 35.890625 71.78125 
z
" id="DejaVuSans-23"/>
     </defs>
     <g transform="translate(417.383594 595.276562)scale(0.1 -0.1)">
      <use xlink:href="#DejaVuSans-45"/>
      <use x="63.183594" xlink:href="#DejaVuSans-70"/>
      <use x="126.660156" xlink:href="#DejaVuSans-69"/>
      <use x="154.443359" xlink:href="#DejaVuSans-73"/>
      <use x="206.542969" xlink:href="#DejaVuSans-6f"/>
      <use x="267.724609" xlink:href="#DejaVuSans-64"/>
      <use x="331.201172" xlink:href="#DejaVuSans-65"/>
      <use x="392.724609" xlink:href="#DejaVuSans-20"/>
      <use x="424.511719" xlink:href="#DejaVuSans-23"/>
     </g>
    </g>
   </g>
   <g id="matplotlib.axis_2">
    <g id="ytick_1">
     <g id="line2d_13">
      <path clip-path="url(#p87fb531d1b)" d="M 108 507.698182 
L 777.6 507.698182 
" style="fill:none;stroke:#b0b0b0;stroke-linecap:square;stroke-width:0.8;"/>
     </g>
     <g id="line2d_14">
      <defs>
       <path d="M 0 0 
L -3.5 0 
" id="m761e5a7a47" style="stroke:#000000;stroke-width:0.8;"/>
      </defs>
      <g>
       <use style="stroke:#000000;stroke-width:0.8;" x="108" xlink:href="#m761e5a7a47" y="507.698182"/>
      </g>
     </g>
     <g id="text_8">
      <!-- 0 -->
      <g transform="translate(94.6375 511.497401)scale(0.1 -0.1)">
       <use xlink:href="#DejaVuSans-30"/>
      </g>
     </g>
    </g>
    <g id="ytick_2">
     <g id="line2d_15">
      <path clip-path="url(#p87fb531d1b)" d="M 108 415.039091 
L 777.6 415.039091 
" style="fill:none;stroke:#b0b0b0;stroke-linecap:square;stroke-width:0.8;"/>
     </g>
     <g id="line2d_16">
      <g>
       <use style="stroke:#000000;stroke-width:0.8;" x="108" xlink:href="#m761e5a7a47" y="415.039091"/>
      </g>
     </g>
     <g id="text_9">
      <!-- 5 -->
      <g transform="translate(94.6375 418.83831)scale(0.1 -0.1)">
       <use xlink:href="#DejaVuSans-35"/>
      </g>
     </g>
    </g>
    <g id="ytick_3">
     <g id="line2d_17">
      <path clip-path="url(#p87fb531d1b)" d="M 108 322.38 
L 777.6 322.38 
" style="fill:none;stroke:#b0b0b0;stroke-linecap:square;stroke-width:0.8;"/>
     </g>
     <g id="line2d_18">
      <g>
       <use style="stroke:#000000;stroke-width:0.8;" x="108" xlink:href="#m761e5a7a47" y="322.38"/>
      </g>
     </g>
     <g id="text_10">
      <!-- 10 -->
      <g transform="translate(88.275 326.179219)scale(0.1 -0.1)">
       <use xlink:href="#DejaVuSans-31"/>
       <use x="63.623047" xlink:href="#DejaVuSans-30"/>
      </g>
     </g>
    </g>
    <g id="ytick_4">
     <g id="line2d_19">
      <path clip-path="url(#p87fb531d1b)" d="M 108 229.720909 
L 777.6 229.720909 
" style="fill:none;stroke:#b0b0b0;stroke-linecap:square;stroke-width:0.8;"/>
     </g>
     <g id="line2d_20">
      <g>
       <use style="stroke:#000000;stroke-width:0.8;" x="108" xlink:href="#m761e5a7a47" y="229.720909"/>
      </g>
     </g>
     <g id="text_11">
      <!-- 15 -->
      <g transform="translate(88.275 233.520128)scale(0.1 -0.1)">
       <use xlink:href="#DejaVuSans-31"/>
       <use x="63.623047" xlink:href="#DejaVuSans-35"/>
      </g>
     </g>
    </g>
    <g id="ytick_5">
     <g id="line2d_21">
      <path clip-path="url(#p87fb531d1b)" d="M 108 137.061818 
L 777.6 137.061818 
" style="fill:none;stroke:#b0b0b0;stroke-linecap:square;stroke-width:0.8;"/>
     </g>
     <g id="line2d_22">
      <g>
       <use style="stroke:#000000;stroke-width:0.8;" x="108" xlink:href="#m761e5a7a47" y="137.061818"/>
      </g>
     </g>
     <g id="text_12">
      <!-- 20 -->
      <g transform="translate(88.275 140.861037)scale(0.1 -0.1)">
       <use xlink:href="#DejaVuSans-32"/>
       <use x="63.623047" xlink:href="#DejaVuSans-30"/>
      </g>
     </g>
    </g>
    <g id="text_13">
     <!-- Score -->
     <defs>
      <path d="M 53.515625 70.515625 
L 53.515625 60.890625 
Q 47.90625 63.578125 42.921875 64.890625 
Q 37.9375 66.21875 33.296875 66.21875 
Q 25.25 66.21875 20.875 63.09375 
Q 16.5 59.96875 16.5 54.203125 
Q 16.5 49.359375 19.40625 46.890625 
Q 22.3125 44.4375 30.421875 42.921875 
L 36.375 41.703125 
Q 47.40625 39.59375 52.65625 34.296875 
Q 57.90625 29 57.90625 20.125 
Q 57.90625 9.515625 50.796875 4.046875 
Q 43.703125 -1.421875 29.984375 -1.421875 
Q 24.8125 -1.421875 18.96875 -0.25 
Q 13.140625 0.921875 6.890625 3.21875 
L 6.890625 13.375 
Q 12.890625 10.015625 18.65625 8.296875 
Q 24.421875 6.59375 29.984375 6.59375 
Q 38.421875 6.59375 43.015625 9.90625 
Q 47.609375 13.234375 47.609375 19.390625 
Q 47.609375 24.75 44.3125 27.78125 
Q 41.015625 30.8125 33.5 32.328125 
L 27.484375 33.5 
Q 16.453125 35.6875 11.515625 40.375 
Q 6.59375 45.0625 6.59375 53.421875 
Q 6.59375 63.09375 13.40625 68.65625 
Q 20.21875 74.21875 32.171875 74.21875 
Q 37.3125 74.21875 42.625 73.28125 
Q 47.953125 72.359375 53.515625 70.515625 
z
" id="DejaVuSans-53"/>
      <path d="M 48.78125 52.59375 
L 48.78125 44.1875 
Q 44.96875 46.296875 41.140625 47.34375 
Q 37.3125 48.390625 33.40625 48.390625 
Q 24.65625 48.390625 19.8125 42.84375 
Q 14.984375 37.3125 14.984375 27.296875 
Q 14.984375 17.28125 19.8125 11.734375 
Q 24.65625 6.203125 33.40625 6.203125 
Q 37.3125 6.203125 41.140625 7.25 
Q 44.96875 8.296875 48.78125 10.40625 
L 48.78125 2.09375 
Q 45.015625 0.34375 40.984375 -0.53125 
Q 36.96875 -1.421875 32.421875 -1.421875 
Q 20.0625 -1.421875 12.78125 6.34375 
Q 5.515625 14.109375 5.515625 27.296875 
Q 5.515625 40.671875 12.859375 48.328125 
Q 20.21875 56 33.015625 56 
Q 37.15625 56 41.109375 55.140625 
Q 45.0625 54.296875 48.78125 52.59375 
z
" id="DejaVuSans-63"/>
      <path d="M 41.109375 46.296875 
Q 39.59375 47.171875 37.8125 47.578125 
Q 36.03125 48 33.890625 48 
Q 26.265625 48 22.1875 43.046875 
Q 18.109375 38.09375 18.109375 28.8125 
L 18.109375 0 
L 9.078125 0 
L 9.078125 54.6875 
L 18.109375 54.6875 
L 18.109375 46.1875 
Q 20.953125 51.171875 25.484375 53.578125 
Q 30.03125 56 36.53125 56 
Q 37.453125 56 38.578125 55.875 
Q 39.703125 55.765625 41.0625 55.515625 
z
" id="DejaVuSans-72"/>
     </defs>
     <g transform="translate(82.195312 336.493281)rotate(-90)scale(0.1 -0.1)">
      <use xlink:href="#DejaVuSans-53"/>
      <use x="63.476562" xlink:href="#DejaVuSans-63"/>
      <use x="118.457031" xlink:href="#DejaVuSans-6f"/>
      <use x="179.638672" xlink:href="#DejaVuSans-72"/>
      <use x="220.720703" xlink:href="#DejaVuSans-65"/>
     </g>
    </g>
   </g>
   <g id="line2d_23">
    <path clip-path="url(#p87fb531d1b)" d="M 138.436364 526.23 
L 139.584906 507.698182 
L 140.733448 507.698182 
L 141.88199 489.166364 
L 144.179074 489.166364 
L 146.476158 526.23 
L 147.6247 489.166364 
L 149.921784 526.23 
L 151.070326 526.23 
L 152.218868 507.698182 
L 153.36741 470.634545 
L 154.515952 526.23 
L 155.664494 544.761818 
L 156.813036 507.698182 
L 157.961578 452.102727 
L 159.11012 507.698182 
L 161.407204 507.698182 
L 162.555746 526.23 
L 163.704288 489.166364 
L 164.85283 470.634545 
L 166.001372 507.698182 
L 167.149914 489.166364 
L 168.298456 452.102727 
L 169.446998 452.102727 
L 170.59554 470.634545 
L 171.744082 526.23 
L 172.892624 526.23 
L 174.041166 489.166364 
L 175.189708 470.634545 
L 177.486792 507.698182 
L 178.635334 507.698182 
L 179.783877 489.166364 
L 180.932419 452.102727 
L 182.080961 507.698182 
L 183.229503 489.166364 
L 184.378045 526.23 
L 185.526587 544.761818 
L 186.675129 489.166364 
L 187.823671 507.698182 
L 188.972213 507.698182 
L 190.120755 489.166364 
L 191.269297 507.698182 
L 192.417839 489.166364 
L 193.566381 489.166364 
L 194.714923 507.698182 
L 195.863465 452.102727 
L 197.012007 507.698182 
L 200.457633 452.102727 
L 201.606175 415.039091 
L 202.754717 415.039091 
L 203.903259 470.634545 
L 205.051801 452.102727 
L 206.200343 544.761818 
L 207.348885 452.102727 
L 208.497427 489.166364 
L 210.794511 452.102727 
L 211.943053 470.634545 
L 213.091595 526.23 
L 214.240137 452.102727 
L 215.388679 433.570909 
L 216.537221 470.634545 
L 217.685763 526.23 
L 218.834305 470.634545 
L 219.982847 433.570909 
L 221.131389 433.570909 
L 222.279931 452.102727 
L 224.577015 452.102727 
L 225.725557 433.570909 
L 228.022642 433.570909 
L 230.319726 396.507273 
L 231.468268 489.166364 
L 233.765352 415.039091 
L 234.913894 470.634545 
L 236.062436 396.507273 
L 237.210978 452.102727 
L 239.508062 452.102727 
L 240.656604 396.507273 
L 241.805146 452.102727 
L 242.953688 396.507273 
L 244.10223 452.102727 
L 245.250772 470.634545 
L 246.399314 415.039091 
L 247.547856 377.975455 
L 248.696398 396.507273 
L 249.84494 452.102727 
L 250.993482 452.102727 
L 252.142024 415.039091 
L 253.290566 396.507273 
L 254.439108 470.634545 
L 256.736192 433.570909 
L 257.884734 433.570909 
L 259.033276 470.634545 
L 260.181818 415.039091 
L 261.33036 433.570909 
L 262.478902 433.570909 
L 263.627444 415.039091 
L 264.775986 470.634545 
L 267.07307 359.443636 
L 268.221612 415.039091 
L 269.370154 322.38 
L 270.518696 452.102727 
L 271.667238 433.570909 
L 272.81578 359.443636 
L 273.964322 433.570909 
L 275.112864 415.039091 
L 278.558491 415.039091 
L 279.707033 433.570909 
L 280.855575 340.911818 
L 282.004117 415.039091 
L 283.152659 433.570909 
L 284.301201 340.911818 
L 285.449743 377.975455 
L 286.598285 433.570909 
L 287.746827 396.507273 
L 288.895369 415.039091 
L 291.192453 377.975455 
L 292.340995 433.570909 
L 293.489537 415.039091 
L 294.638079 415.039091 
L 295.786621 377.975455 
L 296.935163 433.570909 
L 299.232247 359.443636 
L 301.529331 359.443636 
L 302.677873 415.039091 
L 303.826415 396.507273 
L 304.974957 340.911818 
L 306.123499 396.507273 
L 307.272041 396.507273 
L 308.420583 377.975455 
L 309.569125 452.102727 
L 310.717667 396.507273 
L 313.014751 433.570909 
L 314.163293 415.039091 
L 315.311835 359.443636 
L 316.460377 322.38 
L 317.608919 396.507273 
L 318.757461 285.316364 
L 319.906003 340.911818 
L 321.054545 470.634545 
L 322.203087 470.634545 
L 323.35163 359.443636 
L 325.648714 359.443636 
L 326.797256 377.975455 
L 327.945798 322.38 
L 329.09434 433.570909 
L 330.242882 507.698182 
L 331.391424 359.443636 
L 332.539966 322.38 
L 333.688508 415.039091 
L 334.83705 340.911818 
L 335.985592 322.38 
L 337.134134 452.102727 
L 338.282676 396.507273 
L 339.431218 322.38 
L 341.728302 322.38 
L 342.876844 377.975455 
L 345.173928 340.911818 
L 346.32247 415.039091 
L 347.471012 322.38 
L 348.619554 359.443636 
L 349.768096 377.975455 
L 350.916638 359.443636 
L 352.06518 415.039091 
L 353.213722 433.570909 
L 354.362264 377.975455 
L 355.510806 340.911818 
L 356.659348 322.38 
L 357.80789 340.911818 
L 358.956432 322.38 
L 360.104974 396.507273 
L 361.253516 303.848182 
L 362.402058 377.975455 
L 363.5506 396.507273 
L 364.699142 340.911818 
L 366.996226 377.975455 
L 368.144768 359.443636 
L 369.29331 359.443636 
L 370.441852 377.975455 
L 371.590395 377.975455 
L 372.738937 359.443636 
L 373.887479 507.698182 
L 375.036021 303.848182 
L 376.184563 489.166364 
L 377.333105 396.507273 
L 379.630189 285.316364 
L 380.778731 396.507273 
L 381.927273 322.38 
L 383.075815 396.507273 
L 385.372899 322.38 
L 387.669983 359.443636 
L 388.818525 415.039091 
L 389.967067 396.507273 
L 391.115609 340.911818 
L 392.264151 322.38 
L 393.412693 377.975455 
L 394.561235 303.848182 
L 395.709777 377.975455 
L 396.858319 285.316364 
L 398.006861 396.507273 
L 399.155403 303.848182 
L 400.303945 433.570909 
L 401.452487 340.911818 
L 402.601029 377.975455 
L 403.749571 452.102727 
L 404.898113 285.316364 
L 406.046655 303.848182 
L 407.195197 433.570909 
L 408.343739 303.848182 
L 409.492281 507.698182 
L 410.640823 340.911818 
L 411.789365 340.911818 
L 412.937907 229.720909 
L 414.086449 322.38 
L 415.234991 285.316364 
L 416.383533 285.316364 
L 417.532075 303.848182 
L 418.680617 248.252727 
L 419.82916 433.570909 
L 420.977702 303.848182 
L 422.126244 248.252727 
L 423.274786 322.38 
L 424.423328 322.38 
L 425.57187 303.848182 
L 426.720412 322.38 
L 427.868954 359.443636 
L 429.017496 470.634545 
L 430.166038 340.911818 
L 431.31458 322.38 
L 432.463122 359.443636 
L 433.611664 285.316364 
L 434.760206 396.507273 
L 435.908748 396.507273 
L 437.05729 377.975455 
L 438.205832 192.657273 
L 439.354374 303.848182 
L 441.651458 377.975455 
L 442.8 285.316364 
L 443.948542 340.911818 
L 445.097084 452.102727 
L 446.245626 452.102727 
L 449.691252 285.316364 
L 450.839794 248.252727 
L 451.988336 377.975455 
L 453.136878 285.316364 
L 454.28542 322.38 
L 455.433962 322.38 
L 456.582504 377.975455 
L 457.731046 266.784545 
L 458.879588 248.252727 
L 460.02813 248.252727 
L 461.176672 377.975455 
L 462.325214 415.039091 
L 463.473756 229.720909 
L 464.622298 322.38 
L 465.77084 248.252727 
L 466.919383 452.102727 
L 468.067925 359.443636 
L 469.216467 433.570909 
L 470.365009 322.38 
L 471.513551 359.443636 
L 472.662093 340.911818 
L 473.810635 359.443636 
L 474.959177 303.848182 
L 476.107719 266.784545 
L 477.256261 359.443636 
L 478.404803 340.911818 
L 479.553345 377.975455 
L 480.701887 322.38 
L 481.850429 359.443636 
L 482.998971 211.189091 
L 484.147513 377.975455 
L 485.296055 396.507273 
L 486.444597 340.911818 
L 487.593139 248.252727 
L 488.741681 303.848182 
L 489.890223 415.039091 
L 491.038765 415.039091 
L 492.187307 322.38 
L 493.335849 415.039091 
L 494.484391 322.38 
L 495.632933 377.975455 
L 496.781475 322.38 
L 497.930017 229.720909 
L 499.078559 174.125455 
L 500.227101 285.316364 
L 501.375643 266.784545 
L 503.672727 303.848182 
L 504.821269 285.316364 
L 505.969811 340.911818 
L 508.266895 340.911818 
L 509.415437 433.570909 
L 510.563979 396.507273 
L 511.712521 211.189091 
L 512.861063 396.507273 
L 514.009605 229.720909 
L 516.30669 377.975455 
L 517.455232 377.975455 
L 518.603774 322.38 
L 519.752316 396.507273 
L 520.900858 433.570909 
L 522.0494 248.252727 
L 523.197942 415.039091 
L 524.346484 285.316364 
L 525.495026 248.252727 
L 526.643568 303.848182 
L 527.79211 322.38 
L 528.940652 285.316364 
L 530.089194 415.039091 
L 531.237736 174.125455 
L 532.386278 507.698182 
L 533.53482 377.975455 
L 534.683362 377.975455 
L 535.831904 303.848182 
L 536.980446 359.443636 
L 538.128988 396.507273 
L 539.27753 248.252727 
L 540.426072 415.039091 
L 541.574614 322.38 
L 542.723156 248.252727 
L 543.871698 285.316364 
L 545.02024 359.443636 
L 546.168782 322.38 
L 547.317324 359.443636 
L 549.614408 285.316364 
L 550.76295 322.38 
L 551.911492 322.38 
L 553.060034 229.720909 
L 554.208576 266.784545 
L 555.357118 340.911818 
L 556.50566 322.38 
L 557.654202 340.911818 
L 558.802744 340.911818 
L 559.951286 285.316364 
L 562.24837 211.189091 
L 563.396913 285.316364 
L 564.545455 340.911818 
L 565.693997 248.252727 
L 566.842539 248.252727 
L 567.991081 229.720909 
L 569.139623 285.316364 
L 570.288165 433.570909 
L 571.436707 266.784545 
L 572.585249 322.38 
L 573.733791 340.911818 
L 574.882333 415.039091 
L 576.030875 377.975455 
L 577.179417 266.784545 
L 578.327959 340.911818 
L 579.476501 433.570909 
L 580.625043 340.911818 
L 581.773585 415.039091 
L 582.922127 303.848182 
L 584.070669 248.252727 
L 585.219211 322.38 
L 586.367753 211.189091 
L 587.516295 396.507273 
L 588.664837 322.38 
L 590.961921 359.443636 
L 592.110463 303.848182 
L 593.259005 266.784545 
L 594.407547 174.125455 
L 595.556089 285.316364 
L 597.853173 322.38 
L 599.001715 174.125455 
L 600.150257 285.316364 
L 601.298799 359.443636 
L 602.447341 303.848182 
L 603.595883 396.507273 
L 604.744425 359.443636 
L 605.892967 303.848182 
L 607.041509 266.784545 
L 608.190051 155.593636 
L 609.338593 340.911818 
L 610.487136 248.252727 
L 611.635678 340.911818 
L 612.78422 377.975455 
L 613.932762 266.784545 
L 616.229846 303.848182 
L 617.378388 340.911818 
L 618.52693 303.848182 
L 619.675472 303.848182 
L 620.824014 340.911818 
L 623.121098 229.720909 
L 624.26964 229.720909 
L 625.418182 174.125455 
L 626.566724 303.848182 
L 627.715266 303.848182 
L 628.863808 285.316364 
L 630.01235 359.443636 
L 631.160892 248.252727 
L 632.309434 359.443636 
L 633.457976 285.316364 
L 634.606518 248.252727 
L 635.75506 266.784545 
L 639.200686 266.784545 
L 640.349228 174.125455 
L 641.49777 266.784545 
L 642.646312 266.784545 
L 643.794854 155.593636 
L 644.943396 248.252727 
L 646.091938 322.38 
L 647.24048 229.720909 
L 648.389022 322.38 
L 649.537564 322.38 
L 650.686106 359.443636 
L 651.834648 266.784545 
L 652.98319 340.911818 
L 654.131732 248.252727 
L 655.280274 248.252727 
L 656.428816 303.848182 
L 657.577358 248.252727 
L 659.874443 285.316364 
L 661.022985 211.189091 
L 662.171527 266.784545 
L 663.320069 433.570909 
L 664.468611 211.189091 
L 665.617153 174.125455 
L 666.765695 340.911818 
L 667.914237 266.784545 
L 669.062779 359.443636 
L 670.211321 322.38 
L 671.359863 99.998182 
L 672.508405 229.720909 
L 673.656947 266.784545 
L 674.805489 322.38 
L 675.954031 303.848182 
L 677.102573 377.975455 
L 679.399657 340.911818 
L 680.548199 192.657273 
L 681.696741 229.720909 
L 682.845283 359.443636 
L 683.993825 174.125455 
L 685.142367 266.784545 
L 686.290909 285.316364 
L 687.439451 266.784545 
L 688.587993 359.443636 
L 689.736535 322.38 
L 690.885077 266.784545 
L 692.033619 322.38 
L 693.182161 211.189091 
L 694.330703 211.189091 
L 696.627787 248.252727 
L 697.776329 192.657273 
L 698.924871 303.848182 
L 700.073413 377.975455 
L 701.221955 248.252727 
L 702.370497 229.720909 
L 703.519039 322.38 
L 704.667581 377.975455 
L 705.816123 303.848182 
L 706.964666 303.848182 
L 708.113208 192.657273 
L 709.26175 340.911818 
L 710.410292 192.657273 
L 711.558834 285.316364 
L 712.707376 137.061818 
L 713.855918 340.911818 
L 715.00446 303.848182 
L 716.153002 155.593636 
L 717.301544 266.784545 
L 718.450086 211.189091 
L 719.598628 211.189091 
L 720.74717 266.784545 
L 721.895712 137.061818 
L 723.044254 137.061818 
L 724.192796 489.166364 
L 725.341338 266.784545 
L 726.48988 266.784545 
L 728.786964 229.720909 
L 729.935506 285.316364 
L 732.23259 285.316364 
L 733.381132 137.061818 
L 734.529674 359.443636 
L 735.678216 229.720909 
L 736.826758 211.189091 
L 737.9753 211.189091 
L 739.123842 192.657273 
L 740.272384 266.784545 
L 741.420926 192.657273 
L 742.569468 229.720909 
L 743.71801 211.189091 
L 744.866552 359.443636 
L 746.015094 340.911818 
L 747.163636 211.189091 
L 747.163636 211.189091 
" style="fill:none;stroke:#1f77b4;stroke-linecap:square;stroke-width:1.5;"/>
   </g>
   <g id="patch_3">
    <path d="M 108 567 
L 108 77.76 
" style="fill:none;stroke:#000000;stroke-linecap:square;stroke-linejoin:miter;stroke-width:0.8;"/>
   </g>
   <g id="patch_4">
    <path d="M 777.6 567 
L 777.6 77.76 
" style="fill:none;stroke:#000000;stroke-linecap:square;stroke-linejoin:miter;stroke-width:0.8;"/>
   </g>
   <g id="patch_5">
    <path d="M 108 567 
L 777.6 567 
" style="fill:none;stroke:#000000;stroke-linecap:square;stroke-linejoin:miter;stroke-width:0.8;"/>
   </g>
   <g id="patch_6">
    <path d="M 108 77.76 
L 777.6 77.76 
" style="fill:none;stroke:#000000;stroke-linecap:square;stroke-linejoin:miter;stroke-width:0.8;"/>
   </g>
  </g>
 </g>
 <defs>
  <clipPath id="p87fb531d1b">
   <rect height="489.24" width="669.6" x="108" y="77.76"/>
  </clipPath>
 </defs>
</svg>
